Rokkitt-Light.ufo
<glyph name="dollar" format="1">
  <advance width="1151"/>
  <unicode hex="0024"/>
  <outline>
    <contour>
      <point x="493" y="-23" type="curve" smooth="yes"/>
      <point x="490" y="-23" type="line"/>
      <point x="452" y="-198" type="line"/>
      <point x="390" y="-198" type="line"/>
      <point x="427" y="-20" type="line"/>
      <point x="301" y="-7"/>
      <point x="195" y="43"/>
      <point x="104" y="116" type="curve"/>
      <point x="81" y="0" type="line"/>
      <point x="-2" y="0" type="line"/>
      <point x="90" y="432" type="line"/>
      <point x="172" y="432" type="line"/>
      <point x="124" y="204" type="line"/>
      <point x="217" y="120"/>
      <point x="316" y="73"/>
      <point x="445" y="59" type="curve"/>
      <point x="563" y="618" type="line"/>
      <point x="328" y="642"/>
      <point x="183" y="695"/>
      <point x="183" y="872" type="curve" smooth="yes"/>
      <point x="183" y="1156"/>
      <point x="441" y="1306"/>
      <point x="691" y="1306" type="curve" smooth="yes"/>
      <point x="709" y="1306" type="line"/>
      <point x="747" y="1478" type="line"/>
      <point x="809" y="1478" type="line"/>
      <point x="770" y="1300" type="line"/>
      <point x="864" y="1290"/>
      <point x="950" y="1259"/>
      <point x="1032" y="1210" type="curve"/>
      <point x="1048" y="1284" type="line"/>
      <point x="1130" y="1284" type="line"/>
      <point x="1056" y="935" type="line"/>
      <point x="973" y="935" type="line"/>
      <point x="1014" y="1124" type="line"/>
      <point x="966" y="1161"/>
      <point x="879" y="1212"/>
      <point x="755" y="1226" type="curve"/>
      <point x="640" y="690" type="line"/>
      <point x="842" y="665"/>
      <point x="1012" y="610"/>
      <point x="1012" y="417" type="curve" smooth="yes"/>
      <point x="1012" y="392"/>
      <point x="1008" y="362"/>
      <point x="1001" y="329" type="curve" smooth="yes"/>
      <point x="971" y="192"/>
      <point x="820" y="-23"/>
    </contour>
    <contour>
      <point x="506" y="55" type="line"/>
      <point x="516" y="54"/>
      <point x="528" y="54"/>
      <point x="540" y="54" type="curve" smooth="yes"/>
      <point x="752" y="54"/>
      <point x="917" y="209"/>
      <point x="917" y="404" type="curve" smooth="yes"/>
      <point x="917" y="542"/>
      <point x="805" y="585"/>
      <point x="623" y="611" type="curve"/>
    </contour>
    <contour>
      <point x="693" y="1230" type="line"/>
      <point x="689" y="1230" type="line" smooth="yes"/>
      <point x="437" y="1230"/>
      <point x="277" y="1094"/>
      <point x="277" y="883" type="curve" smooth="yes"/>
      <point x="277" y="745"/>
      <point x="402" y="716"/>
      <point x="580" y="697" type="curve"/>
    </contour>
  </outline>
</glyph>
<glyph name="percent" format="1">
  <advance width="1640"/>
  <unicode hex="0025"/>
  <outline>
    <contour>
      <point x="129" y="0" type="line"/>
      <point x="1568" y="1363" type="line"/>
      <point x="1602" y="1321" type="line"/>
      <point x="166" y="-49" type="line"/>
    </contour>
    <contour>
      <point x="216" y="927" type="curve" smooth="yes"/>
      <point x="216" y="799"/>
      <point x="313" y="734"/>
      <point x="424" y="734" type="curve" smooth="yes"/>
      <point x="561" y="734"/>
      <point x="739" y="843"/>
      <point x="739" y="1049" type="curve" smooth="yes"/>
      <point x="739" y="1175"/>
      <point x="641" y="1240"/>
      <point x="531" y="1240" type="curve" smooth="yes"/>
      <point x="393" y="1240"/>
      <point x="216" y="1132"/>
    </contour>
    <contour>
      <point x="544" y="1306" type="curve" smooth="yes"/>
      <point x="689" y="1306"/>
      <point x="818" y="1225"/>
      <point x="818" y="1063" type="curve" smooth="yes"/>
      <point x="818" y="804"/>
      <point x="587" y="667"/>
      <point x="410" y="667" type="curve" smooth="yes"/>
      <point x="264" y="667"/>
      <point x="137" y="750"/>
      <point x="137" y="913" type="curve" smooth="yes"/>
      <point x="137" y="1170"/>
      <point x="365" y="1306"/>
    </contour>
    <contour>
      <point x="944" y="232" type="curve" smooth="yes"/>
      <point x="944" y="105"/>
      <point x="1040" y="42"/>
      <point x="1151" y="42" type="curve" smooth="yes"/>
      <point x="1286" y="42"/>
      <point x="1468" y="150"/>
      <point x="1468" y="355" type="curve" smooth="yes"/>
      <point x="1468" y="481"/>
      <point x="1369" y="548"/>
      <point x="1258" y="548" type="curve" smooth="yes"/>
      <point x="1120" y="548"/>
      <point x="944" y="438"/>
    </contour>
    <contour>
      <point x="1273" y="613" type="curve" smooth="yes"/>
      <point x="1418" y="613"/>
      <point x="1546" y="531"/>
      <point x="1546" y="369" type="curve" smooth="yes"/>
      <point x="1546" y="111"/>
      <point x="1313" y="-27"/>
      <point x="1137" y="-27" type="curve" smooth="yes"/>
      <point x="990" y="-27"/>
      <point x="866" y="57"/>
      <point x="866" y="219" type="curve" smooth="yes"/>
      <point x="866" y="477"/>
      <point x="1093" y="613"/>
    </contour>
  </outline>
</glyph>
<glyph name="period" format="1">
  <advance width="449"/>
  <unicode hex="002E"/>
  <outline>
    <contour>
      <point x="124" y="124" type="line"/>
      <point x="244" y="124" type="line"/>
      <point x="219" y="0" type="line"/>
      <point x="96" y="0" type="line"/>
    </contour>
  </outline>
</glyph>
<glyph name="five" format="1">
  <advance width="1026"/>
  <unicode hex="0035"/>
  <outline>
    <contour>
      <point x="9" y="225" type="line"/>
      <point x="66" y="98"/>
      <point x="217" y="55"/>
      <point x="362" y="55" type="curve" smooth="yes"/>
      <point x="607" y="55"/>
      <point x="837" y="191"/>
      <point x="837" y="494" type="curve" smooth="yes"/>
      <point x="837" y="641"/>
      <point x="756" y="757"/>
      <point x="589" y="757" type="curve" smooth="yes"/>
      <point x="464" y="757"/>
      <point x="331" y="745"/>
      <point x="206" y="686" type="curve"/>
      <point x="157" y="713" type="line"/>
      <point x="279" y="1284" type="line"/>
      <point x="953" y="1284" type="line"/>
      <point x="936" y="1211" type="line"/>
      <point x="346" y="1211" type="line"/>
      <point x="244" y="778" type="line"/>
      <point x="347" y="820"/>
      <point x="490" y="828"/>
      <point x="593" y="828" type="curve" smooth="yes"/>
      <point x="808" y="828"/>
      <point x="925" y="697"/>
      <point x="925" y="508" type="curve" smooth="yes"/>
      <point x="925" y="155"/>
      <point x="634" y="-18"/>
      <point x="348" y="-18" type="curve" smooth="yes"/>
      <point x="185" y="-18"/>
      <point x="21" y="33"/>
      <point x="-51" y="169" type="curve"/>
    </contour>
  </outline>
</glyph>
<glyph name="six" format="1">
  <advance width="874"/>
  <unicode hex="0036"/>
  <outline>
    <contour>
      <point x="39" y="288" type="curve" smooth="yes"/>
      <point x="39" y="159"/>
      <point x="119" y="51"/>
      <point x="305" y="51" type="curve" smooth="yes"/>
      <point x="544" y="51"/>
      <point x="710" y="234"/>
      <point x="710" y="445" type="curve" smooth="yes"/>
      <point x="710" y="604"/>
      <point x="585" y="684"/>
      <point x="444" y="684" type="curve" smooth="yes"/>
      <point x="270" y="684"/>
      <point x="39" y="547"/>
    </contour>
    <contour>
      <point x="703" y="1416" type="line"/>
      <point x="762" y="1367" type="line"/>
      <point x="257" y="706" type="line"/>
      <point x="330" y="738"/>
      <point x="405" y="756"/>
      <point x="470" y="756" type="curve" smooth="yes"/>
      <point x="660" y="756"/>
      <point x="798" y="629"/>
      <point x="798" y="459" type="curve" smooth="yes"/>
      <point x="798" y="223"/>
      <point x="582" y="-23"/>
      <point x="289" y="-23" type="curve" smooth="yes"/>
      <point x="109" y="-23"/>
      <point x="-43" y="98"/>
      <point x="-43" y="280" type="curve" smooth="yes"/>
      <point x="-43" y="460"/>
      <point x="174" y="712"/>
      <point x="184" y="725" type="curve" smooth="yes"/>
    </contour>
  </outline>
</glyph>
<glyph name="eight" format="1">
  <advance width="1044"/>
  <unicode hex="0038"/>
  <outline>
    <contour>
      <point x="672" y="670" type="curve"/>
      <point x="808" y="641"/>
      <point x="887" y="537"/>
      <point x="887" y="406" type="curve" smooth="yes"/>
      <point x="887" y="111"/>
      <point x="599" y="-24"/>
      <point x="374" y="-24" type="curve" smooth="yes"/>
      <point x="182" y="-24"/>
      <point x="14" y="64"/>
      <point x="14" y="254" type="curve" smooth="yes"/>
      <point x="14" y="450"/>
      <point x="171" y="630"/>
      <point x="374" y="670" type="curve"/>
      <point x="249" y="711"/>
      <point x="196" y="806"/>
      <point x="196" y="908" type="curve" smooth="yes"/>
      <point x="196" y="1093"/>
      <point x="372" y="1306"/>
      <point x="659" y="1306" type="curve" smooth="yes"/>
      <point x="877" y="1306"/>
      <point x="980" y="1181"/>
      <point x="980" y="1039" type="curve" smooth="yes"/>
      <point x="980" y="899"/>
      <point x="864" y="718"/>
    </contour>
    <contour>
      <point x="799" y="389" type="curve" smooth="yes"/>
      <point x="799" y="511"/>
      <point x="708" y="620"/>
      <point x="513" y="620" type="curve" smooth="yes"/>
      <point x="253" y="620"/>
      <point x="104" y="432"/>
      <point x="104" y="274" type="curve" smooth="yes"/>
      <point x="104" y="124"/>
      <point x="241" y="51"/>
      <point x="391" y="51" type="curve" smooth="yes"/>
      <point x="571" y="51"/>
      <point x="799" y="166"/>
    </contour>
    <contour>
      <point x="890" y="1027" type="curve" smooth="yes"/>
      <point x="890" y="1136"/>
      <point x="815" y="1230"/>
      <point x="642" y="1230" type="curve" smooth="yes"/>
      <point x="415" y="1230"/>
      <point x="284" y="1068"/>
      <point x="284" y="920" type="curve" smooth="yes"/>
      <point x="284" y="809"/>
      <point x="361" y="707"/>
      <point x="531" y="707" type="curve" smooth="yes"/>
      <point x="754" y="707"/>
      <point x="890" y="883"/>
    </contour>
  </outline>
</glyph>
<glyph name="colon" format="1">
  <advance width="485"/>
  <unicode hex="003A"/>
  <outline>
    <contour>
      <point x="233" y="848" type="line"/>
      <point x="354" y="848" type="line"/>
      <point x="328" y="723" type="line"/>
      <point x="205" y="723" type="line"/>
    </contour>
    <contour>
      <point x="122" y="326" type="line"/>
      <point x="243" y="326" type="line"/>
      <point x="216" y="202" type="line"/>
      <point x="94" y="202" type="line"/>
    </contour>
  </outline>
</glyph>
<glyph name="semicolon" format="1">
  <advance width="492"/>
  <unicode hex="003B"/>
  <outline>
    <contour>
      <point x="143" y="328" type="line"/>
      <point x="275" y="328" type="line"/>
      <point x="248" y="201" type="line" smooth="yes"/>
      <point x="226" y="98"/>
      <point x="173" y="19"/>
      <point x="68" y="19" type="curve"/>
      <point x="77" y="66" type="line"/>
      <point x="152" y="89"/>
      <point x="162" y="116"/>
      <point x="180" y="204" type="curve"/>
      <point x="117" y="204" type="line"/>
    </contour>
    <contour>
      <point x="259" y="848" type="line"/>
      <point x="380" y="848" type="line"/>
      <point x="353" y="723" type="line"/>
      <point x="231" y="723" type="line"/>
    </contour>
  </outline>
</glyph>
<glyph name="less" format="1">
  <advance width="834"/>
  <unicode hex="003C"/>
  <outline>
    <contour>
      <point x="642" y="-23" type="line"/>
      <point x="-98" y="637" type="line"/>
      <point x="924" y="1306" type="line"/>
      <point x="903" y="1209" type="line"/>
      <point x="19" y="637" type="line"/>
      <point x="662" y="70" type="line"/>
    </contour>
  </outline>
</glyph>
<glyph name="question" format="1">
  <advance width="731"/>
  <unicode hex="003F"/>
  <outline>
    <contour>
      <point x="154" y="1044" type="curve"/>
      <point x="98" y="1082" type="line"/>
      <point x="184" y="1215"/>
      <point x="319" y="1272"/>
      <point x="453" y="1272" type="curve" smooth="yes"/>
      <point x="609" y="1272"/>
      <point x="727" y="1179"/>
      <point x="727" y="1028" type="curve" smooth="yes"/>
      <point x="727" y="1007"/>
      <point x="725" y="983"/>
      <point x="720" y="960" type="curve" smooth="yes"/>
      <point x="652" y="636"/>
      <point x="352" y="723"/>
      <point x="238" y="301" type="curve"/>
      <point x="203" y="301" type="line"/>
      <point x="301" y="760"/>
      <point x="583" y="691"/>
      <point x="640" y="960" type="curve"/>
      <point x="645" y="978"/>
      <point x="646" y="996"/>
      <point x="646" y="1014" type="curve" smooth="yes"/>
      <point x="646" y="1113"/>
      <point x="585" y="1197"/>
      <point x="441" y="1197" type="curve" smooth="yes"/>
      <point x="308" y="1197"/>
      <point x="210" y="1134"/>
    </contour>
    <contour>
      <point x="222" y="58" type="line"/>
      <point x="206" y="-23" type="line"/>
      <point x="118" y="-23" type="line"/>
      <point x="136" y="58" type="line"/>
    </contour>
  </outline>
</glyph>
<glyph name="A" format="1">
  <advance width="1403"/>
  <unicode hex="0041"/>
  <outline>
    <contour>
      <point x="0" y="0" type="line"/>
      <point x="380" y="0" type="line"/>
      <point x="395" y="62" type="line"/>
      <point x="241" y="62" type="line"/>
      <point x="461" y="451" type="line"/>
      <point x="1012" y="451" type="line"/>
      <point x="1079" y="62" type="line"/>
      <point x="930" y="62" type="line"/>
      <point x="917" y="0" type="line"/>
      <point x="1297" y="0" type="line"/>
      <point x="1312" y="62" type="line"/>
      <point x="1165" y="62" type="line"/>
      <point x="958" y="1311" type="line"/>
      <point x="854" y="1311" type="line"/>
      <point x="156" y="62" type="line"/>
      <point x="13" y="62" type="line"/>
    </contour>
    <contour>
      <point x="495" y="512" type="line"/>
      <point x="886" y="1230" type="line"/>
      <point x="1002" y="512" type="line"/>
    </contour>
  </outline>
</glyph>
<glyph name="B" format="1">
  <advance width="1135"/>
  <unicode hex="0042"/>
  <outline>
    <contour>
      <point x="370" y="725" type="line"/>
      <point x="662" y="725" type="line" smooth="yes"/>
      <point x="876" y="725"/>
      <point x="1011" y="873"/>
      <point x="1011.0" y="1048.0" type="curve" smooth="yes"/>
      <point x="1011" y="1156"/>
      <point x="926" y="1248"/>
      <point x="731.0" y="1248.0" type="curve" smooth="yes"/>
      <point x="478" y="1248" type="line"/>
      <point x="489" y="1311" type="line"/>
      <point x="732.0" y="1311.0" type="line" smooth="yes"/>
      <point x="982.0" y="1311.0"/>
      <point x="1095" y="1185"/>
      <point x="1095.0" y="1045.0" type="curve" smooth="yes"/>
      <point x="1095" y="848"/>
      <point x="976" y="743"/>
      <point x="788" y="697" type="curve"/>
      <point x="985" y="661"/>
      <point x="1053.0" y="514.0"/>
      <point x="1053.0" y="398.0" type="curve" smooth="yes"/>
      <point x="1053.0" y="208.0"/>
      <point x="881" y="0"/>
      <point x="562.0" y="0.0" type="curve" smooth="yes"/>
      <point x="220" y="0" type="line"/>
      <point x="231" y="62" type="line"/>
      <point x="578.0" y="62.0" type="line" smooth="yes"/>
      <point x="820.0" y="62.0"/>
      <point x="964.0" y="234.0"/>
      <point x="964.0" y="389.0" type="curve" smooth="yes"/>
      <point x="964.0" y="513.0"/>
      <point x="884" y="663"/>
      <point x="692" y="663" type="curve" smooth="yes"/>
      <point x="359" y="663" type="line"/>
    </contour>
    <component base="uc_main_stem"/>
  </outline>
</glyph>
<glyph name="C" format="1">
  <advance width="1477.49621876"/>
  <unicode hex="0043"/>
  <outline>
    <contour>
      <point x="1340.89" y="1006" type="line"/>
      <point x="1286.89" y="991" type="line"/>
      <point x="1254.89" y="1166"/>
      <point x="1129.89" y="1265"/>
      <point x="953.888" y="1265" type="curve" smooth="yes"/>
      <point x="577.888" y="1265"/>
      <point x="377.888" y="899"/>
      <point x="377.888" y="562" type="curve" smooth="yes"/>
      <point x="377.888" y="276"/>
      <point x="528.888" y="48"/>
      <point x="839.888" y="48" type="curve" smooth="yes"/>
      <point x="1008.89" y="48"/>
      <point x="1166.89" y="150"/>
      <point x="1246.89" y="292" type="curve"/>
      <point x="1313.89" y="253" type="line"/>
      <point x="1206.89" y="75"/>
      <point x="1031.89" y="-20"/>
      <point x="820.888" y="-20" type="curve" smooth="yes"/>
      <point x="472.888" y="-20"/>
      <point x="290.888" y="252"/>
      <point x="290.888" y="571" type="curve" smooth="yes"/>
      <point x="290.888" y="952"/>
      <point x="541.888" y="1332"/>
      <point x="951.888" y="1332" type="curve" smooth="yes"/>
      <point x="1083.89" y="1332"/>
      <point x="1222.89" y="1276"/>
      <point x="1290.89" y="1158" type="curve"/>
      <point x="1312.89" y="1311" type="line"/>
      <point x="1382.89" y="1311" type="line"/>
    </contour>
  </outline>
</glyph>
<glyph name="D" format="1">
  <advance width="1273"/>
  <unicode hex="0044"/>
  <outline>
    <contour>
      <point x="476" y="1248" type="line"/>
      <point x="486" y="1311" type="line"/>
      <point x="743.0" y="1311.0" type="line" smooth="yes"/>
      <point x="1105" y="1311"/>
      <point x="1263.0" y="1060.0"/>
      <point x="1263.0" y="764.0" type="curve" smooth="yes"/>
      <point x="1263.0" y="370.0"/>
      <point x="1024.0" y="0.0"/>
      <point x="609.0" y="0.0" type="curve" smooth="yes"/>
      <point x="221" y="0" type="line"/>
      <point x="232" y="62" type="line"/>
      <point x="608.0" y="62.0" type="line" smooth="yes"/>
      <point x="996.0" y="62.0"/>
      <point x="1179.0" y="448.0"/>
      <point x="1179.0" y="762.0" type="curve" smooth="yes"/>
      <point x="1179.0" y="1004.0"/>
      <point x="1060.0" y="1248.0"/>
      <point x="744.0" y="1248.0" type="curve" smooth="yes"/>
    </contour>
    <component base="uc_main_stem"/>
  </outline>
</glyph>
<glyph name="E" format="1">
  <advance width="1071"/>
  <unicode hex="0045"/>
  <outline>
    <contour>
      <point x="1049.0" y="1248.0" type="line"/>
      <point x="478" y="1248" type="line"/>
      <point x="489" y="1311" type="line"/>
      <point x="1147.0" y="1311.0" type="line"/>
      <point x="1091.0" y="1039.0" type="line"/>
      <point x="1004.0" y="1039.0" type="line"/>
    </contour>
    <contour>
      <point x="354" y="646" type="line"/>
      <point x="367" y="708" type="line"/>
      <point x="865.0" y="708.0" type="line"/>
      <point x="892.0" y="840.0" type="line"/>
      <point x="977.0" y="840.0" type="line"/>
      <point x="906.0" y="486.0" type="line"/>
      <point x="821.0" y="486.0" type="line"/>
      <point x="852.0" y="646.0" type="line"/>
    </contour>
    <contour>
      <point x="930.0" y="0.0" type="line"/>
      <point x="220" y="0" type="line"/>
      <point x="231" y="62" type="line"/>
      <point x="858.0" y="62.0" type="line"/>
      <point x="907.0" y="314.0" type="line"/>
      <point x="991.0" y="314.0" type="line"/>
    </contour>
    <component base="uc_main_stem"/>
  </outline>
</glyph>
<glyph name="F" format="1">
  <advance width="983"/>
  <unicode hex="0046"/>
  <outline>
    <contour>
      <point x="-0.504952" y="0" type="line"/>
      <point x="440.495" y="0" type="line"/>
      <point x="452.495" y="62" type="line"/>
      <point x="270.495" y="62" type="line"/>
      <point x="396.495" y="659" type="line"/>
      <point x="821.495" y="659" type="line"/>
      <point x="790.495" y="505" type="line"/>
      <point x="875.495" y="505" type="line"/>
      <point x="946.495" y="859" type="line"/>
      <point x="861.495" y="859" type="line"/>
      <point x="834.495" y="720" type="line"/>
      <point x="408.495" y="720" type="line"/>
      <point x="519.495" y="1248" type="line"/>
      <point x="1028.5" y="1248" type="line"/>
      <point x="985.495" y="1039" type="line"/>
      <point x="1069.5" y="1039" type="line"/>
      <point x="1127.5" y="1311" type="line"/>
      <point x="249.495" y="1311" type="line"/>
      <point x="239.495" y="1248" type="line"/>
      <point x="433.495" y="1248" type="line"/>
      <point x="186.495" y="62" type="line"/>
      <point x="10.495" y="62" type="line"/>
    </contour>
  </outline>
</glyph>
<glyph name="G" format="1">
  <advance width="1470"/>
  <unicode hex="0047"/>
  <outline>
    <contour>
      <point x="1360.89" y="1007" type="line"/>
      <point x="1305.89" y="988" type="line"/>
      <point x="1271.89" y="1165"/>
      <point x="1139.89" y="1265"/>
      <point x="953.888" y="1265" type="curve" smooth="yes"/>
      <point x="577.888" y="1265"/>
      <point x="377.888" y="899"/>
      <point x="377.888" y="562" type="curve" smooth="yes"/>
      <point x="377.888" y="276"/>
      <point x="528.888" y="48"/>
      <point x="839.888" y="48" type="curve" smooth="yes"/>
      <point x="1013.89" y="48"/>
      <point x="1252.89" y="146"/>
      <point x="1295.89" y="543" type="curve"/>
      <point x="983.888" y="543" type="line"/>
      <point x="983.888" y="605" type="line"/>
      <point x="1380.89" y="605" type="line"/>
      <point x="1373.89" y="543" type="line"/>
      <point x="1307.89" y="66"/>
      <point x="1038.89" y="-20"/>
      <point x="820.888" y="-20" type="curve" smooth="yes"/>
      <point x="472.888" y="-20"/>
      <point x="290.888" y="252"/>
      <point x="290.888" y="571" type="curve" smooth="yes"/>
      <point x="290.888" y="952"/>
      <point x="541.888" y="1332"/>
      <point x="951.888" y="1332" type="curve" smooth="yes"/>
      <point x="1091.89" y="1332"/>
      <point x="1237.89" y="1276"/>
      <point x="1309.89" y="1158" type="curve"/>
      <point x="1332.89" y="1311" type="line"/>
      <point x="1402.89" y="1311" type="line"/>
    </contour>
  </outline>
</glyph>
<glyph name="H" format="1">
  <advance width="1565.49504825"/>
  <unicode hex="0048"/>
  <outline>
    <contour>
      <point x="1318" y="636" type="line"/>
      <point x="355" y="636" type="line"/>
      <point x="368" y="699" type="line"/>
      <point x="1330" y="699" type="line"/>
    </contour>
    <component base="uc_main_stem" xOffset="970"/>
    <component base="uc_main_stem"/>
  </outline>
</glyph>
<glyph name="I" format="1">
  <advance width="611"/>
  <unicode hex="0049"/>
  <outline>
    <contour>
      <point x="249.495" y="1248" type="line"/>
      <point x="259.495" y="1311" type="line"/>
      <point x="730.495" y="1311" type="line"/>
      <point x="719.495" y="1248" type="line"/>
      <point x="529.495" y="1248" type="line"/>
      <point x="281.495" y="62" type="line"/>
      <point x="490.495" y="62" type="line"/>
      <point x="479.495" y="0" type="line"/>
      <point x="9.49505" y="0" type="line"/>
      <point x="20.495" y="62" type="line"/>
      <point x="198.495" y="62" type="line"/>
      <point x="443.495" y="1248" type="line"/>
    </contour>
  </outline>
</glyph>
<glyph name="J" format="1">
  <advance width="592"/>
  <unicode hex="004A"/>
  <outline>
    <contour>
      <point x="240.095" y="103" type="curve" smooth="yes"/>
      <point x="482.095" y="1248" type="line"/>
      <point x="338.095" y="1248" type="line"/>
      <point x="352.095" y="1311" type="line"/>
      <point x="726.095" y="1311" type="line"/>
      <point x="713.095" y="1248" type="line"/>
      <point x="568.095" y="1248" type="line"/>
      <point x="325.095" y="104" type="line" smooth="yes"/>
      <point x="289.528" y="-63.9536"/>
      <point x="196.374" y="-105.018"/>
      <point x="66.846" y="-105.018" type="curve" smooth="yes"/>
      <point x="65.2678" y="-105.018"/>
      <point x="63.6841" y="-105.012"/>
      <point x="62.0951" y="-105" type="curve" smooth="yes"/>
      <point x="-48.9049" y="-104" type="line"/>
      <point x="-40.9049" y="-43" type="line"/>
      <point x="75.0951" y="-43" type="line" smooth="yes"/>
      <point x="174.095" y="-43"/>
      <point x="217.095" y="-3"/>
    </contour>
  </outline>
</glyph>
<glyph name="K" format="1">
  <advance width="1290"/>
  <unicode hex="004B"/>
  <outline>
    <contour>
      <point x="378" y="655" type="curve"/>
      <point x="1044.5" y="1248" type="line"/>
      <point x="913.495" y="1248" type="line"/>
      <point x="924" y="1311" type="line"/>
      <point x="1335.5" y="1311" type="line"/>
      <point x="1323.5" y="1248" type="line"/>
      <point x="1151" y="1248" type="line"/>
      <point x="483.495" y="650" type="line"/>
      <point x="1010" y="62" type="line"/>
      <point x="1221" y="62" type="line"/>
      <point x="1209" y="0" type="line"/>
      <point x="750.495" y="0" type="line"/>
      <point x="761.495" y="62" type="line"/>
      <point x="903.495" y="62" type="line"/>
      <point x="903.495" y="62"/>
      <point x="378" y="655"/>
    </contour>
    <component base="uc_main_stem"/>
  </outline>
</glyph>
<glyph name="L" format="1">
  <advance width="1104"/>
  <unicode hex="004C"/>
  <outline>
    <contour>
      <point x="950.495" y="334" type="line"/>
      <point x="1034.5" y="334" type="line"/>
      <point x="1012.5" y="222"/>
      <point x="990.495" y="110"/>
      <point x="967.495" y="0" type="curve"/>
      <point x="228" y="0" type="line"/>
      <point x="239" y="62" type="line"/>
      <point x="894.495" y="62" type="line"/>
    </contour>
    <component base="uc_main_stem"/>
  </outline>
</glyph>
<glyph name="M" format="1">
  <advance width="1835"/>
  <unicode hex="004D"/>
  <outline>
    <contour>
      <point x="1830.84" y="1312" type="line"/>
      <point x="1819.84" y="1249" type="line"/>
      <point x="1675.84" y="1249" type="line"/>
      <point x="1570.84" y="62" type="line"/>
      <point x="1746.84" y="62" type="line"/>
      <point x="1725.84" y="0" type="line"/>
      <point x="1296.84" y="0" type="line"/>
      <point x="1317.84" y="62" type="line"/>
      <point x="1486.84" y="62" type="line"/>
      <point x="1593.84" y="1184" type="line"/>
      <point x="896.84" y="0" type="line"/>
      <point x="849.84" y="0" type="line"/>
      <point x="706.84" y="1170" type="line"/>
      <point x="257.84" y="62" type="line"/>
      <point x="468.84" y="62" type="line"/>
      <point x="456.84" y="0" type="line"/>
      <point x="-13.1604" y="0" type="line"/>
      <point x="-1.16042" y="62" type="line"/>
      <point x="174.84" y="62" type="line"/>
      <point x="664.84" y="1249" type="line"/>
      <point x="469.84" y="1249" type="line"/>
      <point x="480.84" y="1312" type="line"/>
      <point x="766.84" y="1312" type="line"/>
      <point x="904.84" y="159" type="line"/>
      <point x="1583.84" y="1312" type="line"/>
    </contour>
  </outline>
</glyph>
<glyph name="N" format="1">
  <advance width="1469"/>
  <unicode hex="004E"/>
  <outline>
    <contour>
      <point x="1140.7" y="1249" type="line"/>
      <point x="1151.7" y="1312" type="line"/>
      <point x="1618.7" y="1312" type="line"/>
      <point x="1606.7" y="1249" type="line"/>
      <point x="1409.7" y="1249" type="line"/>
      <point x="1155.7" y="0" type="line"/>
      <point x="1075.7" y="0" type="line"/>
      <point x="521.702" y="1192" type="line"/>
      <point x="284.702" y="62" type="line"/>
      <point x="495.702" y="62" type="line"/>
      <point x="483.702" y="0" type="line"/>
      <point x="13.7021" y="0" type="line"/>
      <point x="24.7021" y="62" type="line"/>
      <point x="208.702" y="62" type="line"/>
      <point x="454.702" y="1249" type="line"/>
      <point x="251.702" y="1249" type="line"/>
      <point x="262.702" y="1312" type="line"/>
      <point x="548.702" y="1312" type="line"/>
      <point x="1100.7" y="126" type="line"/>
      <point x="1323.7" y="1249" type="line"/>
    </contour>
  </outline>
</glyph>
<glyph name="O" format="1">
  <advance width="1582"/>
  <unicode hex="004F"/>
  <outline>
    <contour>
      <point x="291.479" y="566" type="curve" smooth="yes"/>
      <point x="291.479" y="970"/>
      <point x="543.479" y="1332"/>
      <point x="950.479" y="1332" type="curve" smooth="yes"/>
      <point x="1274.48" y="1332"/>
      <point x="1473.48" y="1064"/>
      <point x="1473.48" y="735" type="curve" smooth="yes"/>
      <point x="1473.48" y="333"/>
      <point x="1241.48" y="-20"/>
      <point x="834.479" y="-20" type="curve" smooth="yes"/>
      <point x="476.479" y="-20"/>
      <point x="291.479" y="266"/>
    </contour>
    <contour>
      <point x="1389.48" y="733" type="curve" smooth="yes"/>
      <point x="1389.48" y="1004"/>
      <point x="1267.48" y="1263"/>
      <point x="952.479" y="1263" type="curve" smooth="yes"/>
      <point x="576.479" y="1263"/>
      <point x="378.479" y="905"/>
      <point x="378.479" y="564" type="curve" smooth="yes"/>
      <point x="378.479" y="331"/>
      <point x="505.479" y="48"/>
      <point x="832.479" y="48" type="curve" smooth="yes"/>
      <point x="1212.48" y="48"/>
      <point x="1389.48" y="410"/>
    </contour>
  </outline>
</glyph>
<glyph name="P" format="1">
  <advance width="1132.38670624"/>
  <unicode hex="0050"/>
  <outline>
    <contour>
      <point x="477" y="1248" type="line"/>
      <point x="490" y="1311" type="line"/>
      <point x="827" y="1311" type="line" smooth="yes"/>
      <point x="1083" y="1311"/>
      <point x="1195.0" y="1165.0"/>
      <point x="1195.0" y="998.0" type="curve" smooth="yes"/>
      <point x="1195.0" y="785.0"/>
      <point x="1007" y="539"/>
      <point x="693.0" y="539.0" type="curve" smooth="yes"/>
      <point x="333" y="539" type="line"/>
      <point x="346" y="602" type="line"/>
      <point x="710.0" y="602.0" type="line" smooth="yes"/>
      <point x="958.0" y="602.0"/>
      <point x="1107.0" y="813.0"/>
      <point x="1107.0" y="991.0" type="curve" smooth="yes"/>
      <point x="1107.0" y="1129.0"/>
      <point x="1021" y="1248"/>
      <point x="826" y="1248" type="curve" smooth="yes"/>
    </contour>
    <component base="uc_main_stem"/>
  </outline>
</glyph>
<glyph name="Q" format="1">
  <advance width="1582"/>
  <unicode hex="0051"/>
  <outline>
    <contour>
      <point x="1078.48" y="-210" type="curve" smooth="yes"/>
      <point x="1126.48" y="-210"/>
      <point x="1177.48" y="-201"/>
      <point x="1237.48" y="-183" type="curve"/>
      <point x="1228.48" y="-115" type="line"/>
      <point x="1174.48" y="-133"/>
      <point x="1128.48" y="-142"/>
      <point x="1084.48" y="-142" type="curve" smooth="yes"/>
      <point x="996.479" y="-142"/>
      <point x="919.479" y="-106"/>
      <point x="831.479" y="-20" type="curve"/>
      <point x="834.479" y="-20" type="line" smooth="yes"/>
      <point x="1241.48" y="-20"/>
      <point x="1473.48" y="333"/>
      <point x="1473.48" y="735" type="curve" smooth="yes"/>
      <point x="1473.48" y="1064"/>
      <point x="1274.48" y="1332"/>
      <point x="950.479" y="1332" type="curve" smooth="yes"/>
      <point x="543.479" y="1332"/>
      <point x="291.479" y="970"/>
      <point x="291.479" y="566" type="curve" smooth="yes"/>
      <point x="291.479" y="314"/>
      <point x="422.479" y="71"/>
      <point x="677.479" y="0" type="curve"/>
      <point x="820.479" y="-123"/>
      <point x="925.479" y="-210"/>
    </contour>
    <contour>
      <point x="832.479" y="48" type="curve" smooth="yes"/>
      <point x="505.479" y="48"/>
      <point x="378.479" y="331"/>
      <point x="378.479" y="564" type="curve" smooth="yes"/>
      <point x="378.479" y="905"/>
      <point x="576.479" y="1263"/>
      <point x="952.479" y="1263" type="curve" smooth="yes"/>
      <point x="1267.48" y="1263"/>
      <point x="1389.48" y="1004"/>
      <point x="1389.48" y="733" type="curve" smooth="yes"/>
      <point x="1389.48" y="410"/>
      <point x="1212.48" y="48"/>
    </contour>
  </outline>
</glyph>
<glyph name="R" format="1">
  <advance width="1214.0"/>
  <unicode hex="0052"/>
  <outline>
    <contour>
      <point x="738" y="654" type="curve" smooth="yes"/>
      <point x="635" y="654" type="line"/>
      <point x="947" y="62" type="line"/>
      <point x="1157" y="62" type="line"/>
      <point x="1149" y="0" type="line"/>
      <point x="883" y="0" type="line"/>
      <point x="549" y="654" type="line"/>
      <point x="409" y="654" type="line"/>
      <point x="282" y="62" type="line"/>
      <point x="494" y="62" type="line"/>
      <point x="482" y="0" type="line"/>
      <point x="10" y="0" type="line"/>
      <point x="21" y="62" type="line"/>
      <point x="192" y="62" type="line"/>
      <point x="444" y="1249" type="line"/>
      <point x="247" y="1249" type="line"/>
      <point x="260" y="1312" type="line"/>
      <point x="848" y="1312" type="line" smooth="yes"/>
      <point x="1089" y="1312"/>
      <point x="1196" y="1184"/>
      <point x="1196" y="1041" type="curve" smooth="yes"/>
      <point x="1196" y="858"/>
      <point x="1022" y="654"/>
    </contour>
    <contour>
      <point x="422" y="716" type="line"/>
      <point x="756" y="716" type="line" smooth="yes"/>
      <point x="972" y="716"/>
      <point x="1108" y="885"/>
      <point x="1108" y="1034" type="curve" smooth="yes"/>
      <point x="1108" y="1147"/>
      <point x="1027" y="1249"/>
      <point x="847" y="1249" type="curve" smooth="yes"/>
      <point x="535" y="1249" type="line"/>
    </contour>
  </outline>
</glyph>
<glyph name="S" format="1">
  <advance width="1007"/>
  <unicode hex="0053"/>
  <outline>
    <contour>
      <point x="197.263" y="0" type="line"/>
      <point x="211.263" y="88" type="line"/>
      <point x="211.263" y="88"/>
      <point x="266.263" y="-20"/>
      <point x="481.263" y="-20" type="curve" smooth="yes"/>
      <point x="707.263" y="-20"/>
      <point x="896.263" y="101"/>
      <point x="896.263" y="310" type="curve" smooth="yes"/>
      <point x="896.263" y="486"/>
      <point x="767.263" y="595"/>
      <point x="638.263" y="694" type="curve" smooth="yes"/>
      <point x="509.263" y="793"/>
      <point x="380.263" y="882"/>
      <point x="380.263" y="1016" type="curve" smooth="yes"/>
      <point x="380.263" y="1177"/>
      <point x="497.263" y="1265"/>
      <point x="662.263" y="1265" type="curve" smooth="yes"/>
      <point x="786.933" y="1265"/>
      <point x="888.055" y="1191.64"/>
      <point x="888.055" y="1112.15" type="curve" smooth="yes"/>
      <point x="888.055" y="1108.11"/>
      <point x="887.794" y="1104.06"/>
      <point x="887.263" y="1100" type="curve"/>
      <point x="881.263" y="1045" type="line"/>
      <point x="948.263" y="1065" type="line"/>
      <point x="973.263" y="1311" type="line"/>
      <point x="909.263" y="1311" type="line"/>
      <point x="903.263" y="1233" type="line"/>
      <point x="876.263" y="1292"/>
      <point x="747.263" y="1332"/>
      <point x="667.263" y="1332" type="curve" smooth="yes"/>
      <point x="461.263" y="1332"/>
      <point x="289.263" y="1219"/>
      <point x="289.263" y="1007" type="curve" smooth="yes"/>
      <point x="289.263" y="856"/>
      <point x="418.263" y="759"/>
      <point x="547.263" y="661" type="curve" smooth="yes"/>
      <point x="676.263" y="563"/>
      <point x="805.263" y="465"/>
      <point x="805.263" y="311" type="curve" smooth="yes"/>
      <point x="805.263" y="107"/>
      <point x="645.263" y="48"/>
      <point x="493.263" y="48" type="curve" smooth="yes"/>
      <point x="357.594" y="48"/>
      <point x="230.801" y="96.8201"/>
      <point x="230.801" y="206.168" type="curve" smooth="yes"/>
      <point x="230.801" y="212.883"/>
      <point x="231.279" y="219.826"/>
      <point x="232.263" y="227" type="curve"/>
      <point x="246.263" y="313" type="line"/>
      <point x="173.263" y="298" type="line"/>
      <point x="125.263" y="0" type="line"/>
    </contour>
  </outline>
</glyph>
<glyph name="T" format="1">
  <advance width="1137"/>
  <unicode hex="0054"/>
  <outline>
    <contour>
      <point x="292.374" y="1312" type="line"/>
      <point x="1268.08" y="1312" type="line"/>
      <point x="1212.08" y="1040" type="line"/>
      <point x="1126.37" y="1040" type="line"/>
      <point x="1170.08" y="1249" type="line"/>
      <point x="805.076" y="1249" type="line"/>
      <point x="557.076" y="62" type="line"/>
      <point x="767.076" y="62" type="line"/>
      <point x="756.076" y="0" type="line"/>
      <point x="286.076" y="0" type="line"/>
      <point x="297.076" y="62" type="line"/>
      <point x="474.076" y="62" type="line"/>
      <point x="718.076" y="1249" type="line"/>
      <point x="364.374" y="1249" type="line"/>
      <point x="320.374" y="1040" type="line"/>
      <point x="235.374" y="1040" type="line"/>
    </contour>
  </outline>
</glyph>
<glyph name="U" format="1">
  <advance width="1422"/>
  <unicode hex="0055"/>
  <outline>
    <contour>
      <point x="1400.2" y="1249" type="line"/>
      <point x="1223.2" y="404" type="line"/>
      <point x="1153.78" y="108"/>
      <point x="909.175" y="-20"/>
      <point x="682.197" y="-20" type="curve" smooth="yes"/>
      <point x="441.31" y="-20"/>
      <point x="234.329" y="112.474"/>
      <point x="234.329" y="330.907" type="curve" smooth="yes"/>
      <point x="234.329" y="357.981"/>
      <point x="237.508" y="386.374"/>
      <point x="244.197" y="416" type="curve"/>
      <point x="414.197" y="1249" type="line"/>
      <point x="219.197" y="1249" type="line"/>
      <point x="229.495" y="1311" type="line"/>
      <point x="701.495" y="1311" type="line"/>
      <point x="689.197" y="1249" type="line"/>
      <point x="501.197" y="1249" type="line"/>
      <point x="325.197" y="414" type="line"/>
      <point x="318.857" y="388.066"/>
      <point x="315.86" y="363.227"/>
      <point x="315.86" y="339.576" type="curve" smooth="yes"/>
      <point x="315.86" y="159.208"/>
      <point x="490.164" y="48"/>
      <point x="685.197" y="48" type="curve" smooth="yes"/>
      <point x="873.125" y="48"/>
      <point x="1080.91" y="153.829"/>
      <point x="1134.2" y="404" type="curve" smooth="yes"/>
      <point x="1314.2" y="1249" type="line"/>
      <point x="1120.2" y="1249" type="line"/>
      <point x="1129.5" y="1311" type="line"/>
      <point x="1581.5" y="1311" type="line"/>
      <point x="1571.5" y="1249" type="line"/>
    </contour>
  </outline>
</glyph>
<glyph name="V" format="1">
  <advance width="1435"/>
  <unicode hex="0056"/>
  <outline>
    <contour>
      <point x="575.197" y="0" type="line"/>
      <point x="680.197" y="0" type="line"/>
      <point x="1412.5" y="1248" type="line"/>
      <point x="1568.5" y="1248" type="line"/>
      <point x="1581.5" y="1311" type="line"/>
      <point x="1186.5" y="1311" type="line"/>
      <point x="1173.5" y="1248" type="line"/>
      <point x="1309.5" y="1248" type="line"/>
      <point x="648" y="83" type="line"/>
      <point x="456" y="1248" type="line"/>
      <point x="613.495" y="1248" type="line"/>
      <point x="626.495" y="1311" type="line"/>
      <point x="230.495" y="1311" type="line"/>
      <point x="217.495" y="1248" type="line"/>
      <point x="366.495" y="1248" type="line"/>
    </contour>
  </outline>
</glyph>
<glyph name="W" format="1">
  <advance width="1891"/>
  <unicode hex="0057"/>
  <outline>
    <contour>
      <point x="2044.5" y="1248" type="line"/>
      <point x="1889.5" y="1248" type="line"/>
      <point x="1266.5" y="0" type="line"/>
      <point x="1161.5" y="0" type="line"/>
      <point x="1091.5" y="1086" type="line"/>
      <point x="563.495" y="0" type="line"/>
      <point x="458.495" y="0" type="line"/>
      <point x="382.495" y="1248" type="line"/>
      <point x="234.495" y="1248" type="line"/>
      <point x="249" y="1311" type="line"/>
      <point x="646" y="1311" type="line"/>
      <point x="631.495" y="1248" type="line"/>
      <point x="475.495" y="1248" type="line"/>
      <point x="533.495" y="105" type="line"/>
      <point x="1111.5" y="1311" type="line"/>
      <point x="1156.5" y="1311" type="line"/>
      <point x="1236.5" y="105" type="line"/>
      <point x="1785.5" y="1248" type="line"/>
      <point x="1650.5" y="1248" type="line"/>
      <point x="1665" y="1311" type="line"/>
      <point x="2059" y="1311" type="line"/>
    </contour>
  </outline>
</glyph>
<glyph name="X" format="1">
  <advance width="1341"/>
  <unicode hex="0058"/>
  <outline>
    <contour>
      <point x="241.448" y="1248" type="line"/>
      <point x="267.448" y="1311" type="line"/>
      <point x="738.448" y="1311" type="line"/>
      <point x="711.448" y="1248" type="line"/>
      <point x="553.448" y="1248" type="line"/>
      <point x="746" y="756" type="line"/>
      <point x="1114" y="1248" type="line"/>
      <point x="914.448" y="1248" type="line"/>
      <point x="937.448" y="1311" type="line"/>
      <point x="1408.45" y="1311" type="line"/>
      <point x="1385.45" y="1248" type="line"/>
      <point x="1220.45" y="1248" type="line"/>
      <point x="780.448" y="669" type="line"/>
      <point x="1017.45" y="62" type="line"/>
      <point x="1226.45" y="62" type="line"/>
      <point x="1211.45" y="0" type="line"/>
      <point x="741.448" y="0" type="line"/>
      <point x="756.448" y="62" type="line"/>
      <point x="933.448" y="62" type="line"/>
      <point x="723" y="602" type="line"/>
      <point x="314" y="62" type="line"/>
      <point x="529.448" y="62" type="line"/>
      <point x="504.448" y="0" type="line"/>
      <point x="35.4484" y="0" type="line"/>
      <point x="60.4484" y="62" type="line"/>
      <point x="210.448" y="62" type="line"/>
      <point x="687.448" y="691" type="line"/>
      <point x="467.448" y="1248" type="line"/>
    </contour>
  </outline>
</glyph>
<glyph name="Y" format="1">
  <advance width="1294"/>
  <unicode hex="0059"/>
  <outline>
    <contour>
      <point x="1422.5" y="1248" type="line"/>
      <point x="1266.5" y="1248" type="line"/>
      <point x="738.495" y="519" type="line"/>
      <point x="643.495" y="62" type="line"/>
      <point x="852.495" y="62" type="line"/>
      <point x="842.495" y="0" type="line"/>
      <point x="371.495" y="0" type="line"/>
      <point x="381" y="62" type="line"/>
      <point x="560" y="62" type="line"/>
      <point x="653.495" y="526" type="line"/>
      <point x="385.495" y="1248" type="line"/>
      <point x="237.495" y="1248" type="line"/>
      <point x="248.495" y="1311" type="line"/>
      <point x="644.495" y="1311" type="line"/>
      <point x="633.495" y="1248" type="line"/>
      <point x="481" y="1248" type="line"/>
      <point x="713" y="601" type="line"/>
      <point x="1164.5" y="1248" type="line"/>
      <point x="1028.5" y="1248" type="line"/>
      <point x="1041.5" y="1311" type="line"/>
      <point x="1434.5" y="1311" type="line"/>
    </contour>
  </outline>
</glyph>
<glyph name="Z" format="1">
  <advance width="1116"/>
  <unicode hex="005A"/>
  <outline>
    <contour>
      <point x="964.495" y="334" type="line"/>
      <point x="1048.5" y="334" type="line"/>
      <point x="981.495" y="0" type="line"/>
      <point x="112.495" y="0" type="line"/>
      <point x="92.495" y="36" type="line"/>
      <point x="1049.5" y="1248" type="line"/>
      <point x="423.495" y="1248" type="line"/>
      <point x="367.495" y="976" type="line"/>
      <point x="282.495" y="976" type="line"/>
      <point x="351.495" y="1311" type="line"/>
      <point x="1161.5" y="1311" type="line"/>
      <point x="1177.5" y="1283" type="line"/>
      <point x="215.495" y="62" type="line"/>
      <point x="908.495" y="62" type="line"/>
    </contour>
  </outline>
</glyph>
<glyph name="backslash" format="1">
  <advance width="543"/>
  <unicode hex="005C"/>
  <outline>
    <contour>
      <point x="261" y="1306" type="line"/>
      <point x="366" y="-23" type="line"/>
      <point x="286" y="-23" type="line"/>
      <point x="186" y="1306" type="line"/>
    </contour>
  </outline>
</glyph>
<glyph name="bracketright" format="1">
  <advance width="498"/>
  <unicode hex="005D"/>
  <outline>
    <contour>
      <point x="205" y="1306" type="line"/>
      <point x="457" y="1306" type="line"/>
      <point x="176" y="-23" type="line"/>
      <point x="-76" y="-23" type="line"/>
      <point x="-63" y="42" type="line"/>
      <point x="105" y="42" type="line"/>
      <point x="360" y="1241" type="line"/>
      <point x="192" y="1241" type="line"/>
    </contour>
  </outline>
</glyph>
<glyph name="grave" format="1">
  <advance width="410"/>
  <unicode hex="0060"/>
  <outline>
    <contour>
      <point x="307" y="1025" type="line"/>
      <point x="274" y="1025" type="line"/>
      <point x="166" y="1284" type="line"/>
      <point x="307" y="1284" type="line"/>
    </contour>
  </outline>
</glyph>
<glyph name="a" format="1">
  <advance width="1024"/>
  <unicode hex="0061"/>
  <outline>
    <contour>
      <point x="204.0" y="-102.0"/>
      <point x="636.0" y="-31.0"/>
      <point x="722.071" y="106.0" type="curve"/>
      <point x="729.071" y="40.0"/>
      <point x="771.071" y="-9.0"/>
      <point x="850.071" y="-9.0" type="curve" smooth="yes"/>
      <point x="950.071" y="-9.0"/>
      <point x="1016.07" y="64.0"/>
      <point x="1043.07" y="188.0" type="curve"/>
      <point x="985.071" y="210.0" type="line"/>
      <point x="965.071" y="134.0"/>
      <point x="927.071" y="52.0"/>
      <point x="860.071" y="52.0" type="curve" smooth="yes"/>
      <point x="814.587" y="52.0"/>
      <point x="802.915" y="86.4741"/>
      <point x="802.915" y="124.505" type="curve" smooth="yes"/>
      <point x="802.915" y="152.529"/>
      <point x="809.253" y="182.484"/>
      <point x="813.071" y="202.0" type="curve" smooth="yes"/>
      <point x="890.071" y="593.0" type="line" smooth="yes"/>
      <point x="911.0" y="701.0"/>
      <point x="887.0" y="854.0"/>
      <point x="647.071" y="854.0" type="curve" smooth="yes"/>
      <point x="513.0" y="854.0"/>
      <point x="411.0" y="827.0"/>
      <point x="323.0" y="756.0" type="curve"/>
      <point x="350.0" y="693.0" type="line"/>
      <point x="422" y="748"/>
      <point x="516.0" y="787.0"/>
      <point x="635.0" y="787.0" type="curve" smooth="yes"/>
      <point x="783.058252427" y="787.0"/>
      <point x="836.463045455" y="732.846590909"/>
      <point x="806.071" y="575.0" type="curve" smooth="yes"/>
      <point x="781.071" y="446.0" type="line"/>
      <point x="508.577493506" y="501.896103896"/>
      <point x="179.0" y="476.0"/>
      <point x="192.0" y="180.0" type="curve" smooth="yes"/>
    </contour>
    <contour>
      <point x="557.0" y="19.0"/>
      <point x="280" y="-7"/>
      <point x="269" y="184" type="curve" smooth="yes"/>
      <point x="252" y="477"/>
      <point x="642.0" y="419.0"/>
      <point x="769.0" y="388.0" type="curve"/>
      <point x="722.071" y="158.0" type="line"/>
    </contour>
  </outline>
</glyph>
<glyph name="b" format="1">
  <advance width="1010"/>
  <unicode hex="0062"/>
  <outline>
    <contour>
      <point x="357" y="577" type="line"/>
      <point x="414" y="722"/>
      <point x="527" y="851"/>
      <point x="694" y="851" type="curve" smooth="yes"/>
      <point x="903" y="851"/>
      <point x="998" y="677"/>
      <point x="998" y="479" type="curve" smooth="yes"/>
      <point x="998" y="243"/>
      <point x="854" y="-18"/>
      <point x="594" y="-18" type="curve" smooth="yes"/>
      <point x="409" y="-18"/>
      <point x="304" y="132"/>
      <point x="313" y="351" type="curve"/>
    </contour>
    <contour>
      <point x="916" y="479" type="curve" smooth="yes"/>
      <point x="916" y="638"/>
      <point x="844" y="787"/>
      <point x="686" y="787" type="curve" smooth="yes"/>
      <point x="534" y="787"/>
      <point x="415" y="678"/>
      <point x="365" y="430" type="curve" smooth="yes"/>
      <point x="318" y="201"/>
      <point x="430" y="46"/>
      <point x="593" y="46" type="curve" smooth="yes"/>
      <point x="801" y="46"/>
      <point x="916" y="272"/>
    </contour>
    <component base="lc_ascender_stem"/>
  </outline>
</glyph>
<glyph name="c" format="1">
  <advance width="990"/>
  <unicode hex="0063"/>
  <outline>
    <contour>
      <point x="850.753" y="733" type="line"/>
      <point x="850.753" y="750"/>
      <point x="780.753" y="789"/>
      <point x="690.753" y="789" type="curve" smooth="yes"/>
      <point x="442.753" y="789"/>
      <point x="296.753" y="542"/>
      <point x="296.753" y="333" type="curve" smooth="yes"/>
      <point x="296.753" y="178"/>
      <point x="376.753" y="43"/>
      <point x="555.753" y="43" type="curve" smooth="yes"/>
      <point x="647.753" y="43"/>
      <point x="748.753" y="95"/>
      <point x="829.753" y="208" type="curve"/>
      <point x="879.753" y="170" type="line"/>
      <point x="797.753" y="43"/>
      <point x="668.753" y="-18"/>
      <point x="552.753" y="-18" type="curve" smooth="yes"/>
      <point x="323.753" y="-18"/>
      <point x="219.753" y="149"/>
      <point x="219.753" y="336" type="curve" smooth="yes"/>
      <point x="219.753" y="576"/>
      <point x="391.753" y="851"/>
      <point x="693.753" y="851" type="curve" smooth="yes"/>
      <point x="803.753" y="851"/>
      <point x="930.753" y="802"/>
      <point x="923.753" y="741" type="curve" smooth="yes"/>
      <point x="909.753" y="632" type="line"/>
      <point x="838.753" y="613" type="line"/>
    </contour>
  </outline>
</glyph>
<glyph name="d" format="1">
  <advance width="1151"/>
  <unicode hex="0064"/>
  <outline>
    <contour>
      <point x="528.624" y="-18" type="curve" smooth="yes"/>
      <point x="632.624" y="-18"/>
      <point x="747.624" y="48"/>
      <point x="806.624" y="154" type="curve"/>
      <point x="805.215" y="144.137"/>
      <point x="804.486" y="134.288"/>
      <point x="804.486" y="124.593" type="curve" smooth="yes"/>
      <point x="804.486" y="53.6859"/>
      <point x="843.48" y="-9"/>
      <point x="940.624" y="-9" type="curve" smooth="yes"/>
      <point x="1030.62" y="-9"/>
      <point x="1100.62" y="64"/>
      <point x="1127.62" y="188" type="curve"/>
      <point x="1070.62" y="210" type="line"/>
      <point x="1048.62" y="134"/>
      <point x="1009.62" y="52"/>
      <point x="944.624" y="52" type="curve" smooth="yes"/>
      <point x="898.624" y="52"/>
      <point x="886.624" y="90"/>
      <point x="886.624" y="130" type="curve" smooth="yes"/>
      <point x="886.624" y="148"/>
      <point x="889.624" y="166"/>
      <point x="892.624" y="181" type="curve" smooth="yes"/>
      <point x="1109.62" y="1260" type="line"/>
      <point x="855.624" y="1260" type="line"/>
      <point x="843.624" y="1203" type="line"/>
      <point x="1011.62" y="1203" type="line"/>
      <point x="892.624" y="624" type="line"/>
      <point x="852.624" y="782"/>
      <point x="749.624" y="850"/>
      <point x="625.624" y="850" type="curve" smooth="yes"/>
      <point x="375.624" y="850"/>
      <point x="223" y="582"/>
      <point x="223" y="344" type="curve" smooth="yes"/>
      <point x="223" y="142"/>
      <point x="315.624" y="-18"/>
    </contour>
    <contour>
      <point x="531" y="43" type="curve" smooth="yes"/>
      <point x="369" y="43"/>
      <point x="294.624" y="177"/>
      <point x="294.624" y="332" type="curve" smooth="yes"/>
      <point x="294.624" y="542"/>
      <point x="426.624" y="788"/>
      <point x="623.624" y="788" type="curve" smooth="yes"/>
      <point x="789.624" y="788"/>
      <point x="864.624" y="644"/>
      <point x="864.624" y="482" type="curve" smooth="yes"/>
      <point x="864.624" y="459.442"/>
      <point x="863.137" y="436.561"/>
      <point x="860.205" y="413.697" type="curve" smooth="yes"/>
      <point x="836.364" y="227.765"/>
      <point x="723" y="43"/>
    </contour>
  </outline>
</glyph>
<glyph name="e" format="1">
  <advance width="1001"/>
  <unicode hex="0065"/>
  <outline>
    <contour>
      <point x="571.626" y="-18" type="curve" smooth="yes"/>
      <point x="695.626" y="-18"/>
      <point x="830.626" y="43"/>
      <point x="918.626" y="170" type="curve"/>
      <point x="868.626" y="208" type="line"/>
      <point x="781.626" y="95"/>
      <point x="672.626" y="43"/>
      <point x="574.626" y="43" type="curve" smooth="yes"/>
      <point x="428.626" y="43"/>
      <point x="305.626" y="156"/>
      <point x="305.626" y="358" type="curve" smooth="yes"/>
      <point x="305.626" y="378"/>
      <point x="306.626" y="401"/>
      <point x="311.626" y="420" type="curve"/>
      <point x="940.626" y="420" type="line"/>
      <point x="946.626" y="440"/>
      <point x="952.626" y="503"/>
      <point x="952.626" y="532" type="curve" smooth="yes"/>
      <point x="952.626" y="711"/>
      <point x="837.626" y="851"/>
      <point x="653.626" y="851" type="curve" smooth="yes"/>
      <point x="375.626" y="851"/>
      <point x="221.626" y="594"/>
      <point x="221.626" y="355" type="curve" smooth="yes"/>
      <point x="221.626" y="109"/>
      <point x="389.626" y="-18"/>
    </contour>
    <contour>
      <point x="320.626" y="476" type="line"/>
      <point x="365.626" y="678"/>
      <point x="506.626" y="789"/>
      <point x="656.626" y="789" type="curve" smooth="yes"/>
      <point x="792.626" y="789"/>
      <point x="884.626" y="684"/>
      <point x="884.626" y="542" type="curve" smooth="yes"/>
      <point x="884.626" y="521"/>
      <point x="882.626" y="500"/>
      <point x="878.626" y="476" type="curve"/>
    </contour>
  </outline>
</glyph>
<glyph name="f" format="1">
  <advance width="812"/>
  <unicode hex="0066"/>
  <outline>
    <contour>
      <point x="946.459" y="1209" type="curve"/>
      <point x="899.459" y="1159" type="line"/>
      <point x="874.459" y="1190"/>
      <point x="840.459" y="1206"/>
      <point x="803.459" y="1206" type="curve" smooth="yes"/>
      <point x="725.459" y="1206"/>
      <point x="641.459" y="1147"/>
      <point x="625.459" y="1071" type="curve" smooth="yes"/>
      <point x="573.459" y="828" type="line"/>
      <point x="765.459" y="828" type="line"/>
      <point x="752.459" y="770" type="line"/>
      <point x="561.459" y="770" type="line"/>
      <point x="413.459" y="62" type="line"/>
      <point x="612.459" y="62" type="line"/>
      <point x="599.459" y="0" type="line"/>
      <point x="146.459" y="0" type="line"/>
      <point x="160.459" y="62" type="line"/>
      <point x="331.459" y="62" type="line"/>
      <point x="477.459" y="770" type="line"/>
      <point x="302.459" y="770" type="line"/>
      <point x="316.459" y="828" type="line"/>
      <point x="492.459" y="828" type="line"/>
      <point x="542.459" y="1069" type="line"/>
      <point x="564.459" y="1181"/>
      <point x="686.459" y="1267"/>
      <point x="803.459" y="1267" type="curve" smooth="yes"/>
      <point x="855.459" y="1267"/>
      <point x="905.459" y="1251"/>
    </contour>
  </outline>
</glyph>
<glyph name="g" format="1">
  <advance width="1025"/>
  <unicode hex="0067"/>
  <outline>
    <contour>
      <point x="463.631" y="-312" type="curve" smooth="yes"/>
      <point x="659.631" y="-312"/>
      <point x="803.631" y="-212"/>
      <point x="856.631" y="49" type="curve" smooth="yes"/>
      <point x="1013.63" y="828" type="line"/>
      <point x="929.631" y="828" type="line"/>
      <point x="890.631" y="598" type="line"/>
      <point x="861.631" y="766"/>
      <point x="741.631" y="850"/>
      <point x="617.631" y="850" type="curve" smooth="yes"/>
      <point x="359.631" y="850"/>
      <point x="218.631" y="614"/>
      <point x="218.631" y="350" type="curve" smooth="yes"/>
      <point x="218.631" y="94"/>
      <point x="372.631" y="-18"/>
      <point x="530.631" y="-18" type="curve" smooth="yes"/>
      <point x="635.631" y="-18"/>
      <point x="743.631" y="43"/>
      <point x="801.631" y="155" type="curve"/>
      <point x="776.631" y="51" type="line" smooth="yes"/>
      <point x="721.631" y="-179"/>
      <point x="632.631" y="-251"/>
      <point x="463.631" y="-251" type="curve" smooth="yes"/>
      <point x="371.631" y="-251"/>
      <point x="294.631" y="-219"/>
      <point x="245.631" y="-174" type="curve"/>
      <point x="210.631" y="-225" type="line"/>
      <point x="280.631" y="-285"/>
      <point x="368.631" y="-312"/>
    </contour>
    <contour>
      <point x="526.631" y="43" type="curve" smooth="yes"/>
      <point x="367.205" y="43"/>
      <point x="297.746" y="189.573"/>
      <point x="297.746" y="345.607" type="curve" smooth="yes"/>
      <point x="297.746" y="351.062"/>
      <point x="297.831" y="356.528"/>
      <point x="298" y="362" type="curve" smooth="yes"/>
      <point x="304" y="560"/>
      <point x="398.631" y="788"/>
      <point x="615.631" y="788" type="curve" smooth="yes"/>
      <point x="781.631" y="788"/>
      <point x="856.631" y="644"/>
      <point x="856.631" y="482" type="curve" smooth="yes"/>
      <point x="856.631" y="463.698"/>
      <point x="855.684" y="445.184"/>
      <point x="853.811" y="426.638" type="curve" smooth="yes"/>
      <point x="834.599" y="236.438"/>
      <point x="717.974" y="43"/>
    </contour>
  </outline>
</glyph>
<glyph name="i" format="1">
  <advance width="574"/>
  <unicode hex="0069"/>
  <outline>
    <contour>
      <point x="249.471" y="208" type="curve"/>
      <point x="365.471" y="770" type="line"/>
      <point x="197.471" y="770" type="line"/>
      <point x="209.471" y="828" type="line"/>
      <point x="463.471" y="828" type="line"/>
      <point x="334.471" y="210" type="line" smooth="yes"/>
      <point x="329.46" y="184.947"/>
      <point x="323.7" y="155.247"/>
      <point x="323.7" y="128.397" type="curve" smooth="yes"/>
      <point x="323.7" y="86.7745"/>
      <point x="337.541" y="52"/>
      <point x="389.471" y="52" type="curve" smooth="yes"/>
      <point x="455.471" y="52"/>
      <point x="489.471" y="135"/>
      <point x="513.471" y="213" type="curve"/>
      <point x="567.471" y="192" type="line"/>
      <point x="533.471" y="65"/>
      <point x="475.471" y="-9"/>
      <point x="378.471" y="-9" type="curve" smooth="yes"/>
      <point x="286.393" y="-9"/>
      <point x="241.629" y="55.3523"/>
      <point x="241.629" y="141.851" type="curve" smooth="yes"/>
      <point x="241.629" y="162.802"/>
      <point x="244.255" y="185.051"/>
    </contour>
    <contour>
      <point x="457.471" y="1024" type="curve" smooth="yes"/>
      <point x="417.471" y="1024"/>
      <point x="387.471" y="1056"/>
      <point x="387.471" y="1093" type="curve" smooth="yes"/>
      <point x="387.471" y="1136"/>
      <point x="417.471" y="1164"/>
      <point x="455.471" y="1164" type="curve" smooth="yes"/>
      <point x="508.471" y="1164"/>
      <point x="530.471" y="1126"/>
      <point x="530.471" y="1093" type="curve" smooth="yes"/>
      <point x="530.471" y="1059"/>
      <point x="503.471" y="1024"/>
    </contour>
  </outline>
</glyph>
<glyph name="j" format="1">
  <advance width="554"/>
  <unicode hex="006A"/>
  <outline>
    <contour>
      <point x="507.647" y="1024" type="curve" smooth="yes"/>
      <point x="467.647" y="1024"/>
      <point x="437.647" y="1056"/>
      <point x="437.647" y="1093" type="curve" smooth="yes"/>
      <point x="437.647" y="1136"/>
      <point x="467.647" y="1164"/>
      <point x="505.647" y="1164" type="curve" smooth="yes"/>
      <point x="558.647" y="1164"/>
      <point x="580.647" y="1126"/>
      <point x="580.647" y="1093" type="curve" smooth="yes"/>
      <point x="580.647" y="1059"/>
      <point x="553.647" y="1024"/>
    </contour>
    <contour>
      <point x="246.647" y="-36" type="curve" smooth="yes"/>
      <point x="417.647" y="769" type="line"/>
      <point x="275.647" y="769" type="line"/>
      <point x="287.647" y="828" type="line"/>
      <point x="511.647" y="828" type="line"/>
      <point x="332.647" y="-22" type="line"/>
      <point x="304.647" y="-149"/>
      <point x="277.647" y="-282"/>
      <point x="54.6473" y="-282" type="curve" smooth="yes"/>
      <point x="-27.3527" y="-282" type="line"/>
      <point x="-14.3527" y="-219" type="line"/>
      <point x="68.6473" y="-219" type="line" smooth="yes"/>
      <point x="207.647" y="-219"/>
      <point x="221.647" y="-155"/>
    </contour>
  </outline>
</glyph>
<glyph name="k" format="1">
  <advance width="947.164773669"/>
  <unicode hex="006B"/>
  <outline>
    <contour>
      <point x="506.164773669" y="400" type="line"/>
      <point x="311" y="400" type="line"/>
      <point x="323" y="459" type="line"/>
      <point x="512.164773669" y="459" type="line"/>
      <point x="726" y="735" type="line" smooth="yes"/>
      <point x="794" y="822"/>
      <point x="832" y="851"/>
      <point x="900" y="851" type="curve" smooth="yes"/>
      <point x="996" y="851" type="line"/>
      <point x="984" y="790" type="line"/>
      <point x="923" y="790" type="line" smooth="yes"/>
      <point x="860" y="790"/>
      <point x="837" y="753"/>
      <point x="799" y="705" type="curve" smooth="yes"/>
      <point x="580.164773669" y="427" type="line"/>
      <point x="677" y="155" type="line" smooth="yes"/>
      <point x="694" y="107"/>
      <point x="704" y="52"/>
      <point x="754" y="52" type="curve" smooth="yes"/>
      <point x="822" y="52"/>
      <point x="855" y="135"/>
      <point x="881" y="213" type="curve"/>
      <point x="935" y="192" type="line"/>
      <point x="901" y="65"/>
      <point x="843" y="-9"/>
      <point x="745" y="-9" type="curve" smooth="yes"/>
      <point x="651" y="-9"/>
      <point x="631" y="55"/>
      <point x="599" y="143" type="curve" smooth="yes"/>
    </contour>
    <component base="lc_ascender_stem" xOffset="-9.83522633105"/>
  </outline>
</glyph>
<glyph name="l" format="1">
  <advance width="516"/>
  <unicode hex="006C"/>
  <outline>
    <contour>
      <point x="214.685" y="208" type="curve"/>
      <point x="427.685" y="1225" type="line"/>
      <point x="258.685" y="1225" type="line"/>
      <point x="271.685" y="1283" type="line"/>
      <point x="524.685" y="1283" type="line"/>
      <point x="299.685" y="210" type="line" smooth="yes"/>
      <point x="294.862" y="185.885"/>
      <point x="289.813" y="157.463"/>
      <point x="289.813" y="131.423" type="curve" smooth="yes"/>
      <point x="289.813" y="88.4736"/>
      <point x="303.548" y="52"/>
      <point x="354.685" y="52" type="curve" smooth="yes"/>
      <point x="421.685" y="52"/>
      <point x="455.685" y="135"/>
      <point x="479.685" y="213" type="curve"/>
      <point x="533.685" y="192" type="line"/>
      <point x="501.685" y="65"/>
      <point x="443.685" y="-9"/>
      <point x="345.685" y="-9" type="curve" smooth="yes"/>
      <point x="252.378" y="-9"/>
      <point x="206.928" y="59.1682"/>
      <point x="206.928" y="144.535" type="curve" smooth="yes"/>
      <point x="206.928" y="164.939"/>
      <point x="209.525" y="186.326"/>
    </contour>
  </outline>
</glyph>
<glyph name="m" format="1">
  <advance width="1488.17342231"/>
  <unicode hex="006D"/>
  <outline>
    <contour>
      <point x="883.0" y="469.0" type="curve" smooth="yes"/>
      <point x="791.0" y="0.0" type="line"/>
      <point x="702.0" y="0.0" type="line"/>
      <point x="813.0" y="550.0" type="line"/>
      <point x="819.0" y="580.0"/>
      <point x="822.0" y="608.0"/>
      <point x="822.0" y="634.0" type="curve" smooth="yes"/>
      <point x="822.0" y="728.0"/>
      <point x="782.0" y="789.0"/>
      <point x="680.0" y="789.0" type="curve" smooth="yes"/>
      <point x="577.0" y="789.0"/>
      <point x="416" y="688"/>
      <point x="373" y="469" type="curve"/>
      <point x="337" y="530" type="line"/>
      <point x="441" y="800"/>
      <point x="572.0" y="851.0"/>
      <point x="691.0" y="851.0" type="curve" smooth="yes"/>
      <point x="824.0" y="851.0"/>
      <point x="893.0" y="769.0"/>
      <point x="903.0" y="657.0" type="curve"/>
      <point x="975.0" y="773.0"/>
      <point x="1080.0" y="851.0"/>
      <point x="1201.0" y="851.0" type="curve" smooth="yes"/>
      <point x="1332.0" y="851.0"/>
      <point x="1391.0" y="761.0"/>
      <point x="1391.0" y="632.0" type="curve" smooth="yes"/>
      <point x="1391.0" y="605.0"/>
      <point x="1389.0" y="576.0"/>
      <point x="1383.0" y="545.0" type="curve"/>
      <point x="1313.0" y="190.0" type="line" smooth="yes"/>
      <point x="1310.0" y="168.0"/>
      <point x="1304.0" y="140.0"/>
      <point x="1304.0" y="114.0" type="curve" smooth="yes"/>
      <point x="1304.0" y="73.0"/>
      <point x="1317.0" y="36.0"/>
      <point x="1366.0" y="36.0" type="curve" smooth="yes"/>
      <point x="1420.0" y="36.0"/>
      <point x="1460.0" y="119.0"/>
      <point x="1480.0" y="197.0" type="curve"/>
      <point x="1539.0" y="173.0" type="line"/>
      <point x="1510.0" y="50.0"/>
      <point x="1450.0" y="-28.0"/>
      <point x="1358.0" y="-28.0" type="curve" smooth="yes"/>
      <point x="1256.0" y="-28.0"/>
      <point x="1221.0" y="48.0"/>
      <point x="1221.0" y="125.0" type="curve" smooth="yes"/>
      <point x="1221.0" y="144.0"/>
      <point x="1223.0" y="162.0"/>
      <point x="1226.0" y="180.0" type="curve"/>
      <point x="1299.0" y="550.0" type="line"/>
      <point x="1306.0" y="584.0"/>
      <point x="1309.0" y="615.0"/>
      <point x="1309.0" y="643.0" type="curve" smooth="yes"/>
      <point x="1309.0" y="732.0"/>
      <point x="1275.0" y="789.0"/>
      <point x="1190.0" y="789.0" type="curve" smooth="yes"/>
      <point x="1086.0" y="789.0"/>
      <point x="925.0" y="688.0"/>
    </contour>
    <component base="lc_main_stem"/>
  </outline>
</glyph>
<glyph name="o" format="1">
  <advance width="1040"/>
  <unicode hex="006F"/>
  <outline>
    <contour>
      <point x="214.856" y="345" type="curve" smooth="yes"/>
      <point x="214.856" y="583"/>
      <point x="381.622" y="851"/>
      <point x="650.857" y="851" type="curve" smooth="yes"/>
      <point x="889.991" y="851"/>
      <point x="997.856" y="674"/>
      <point x="997.856" y="479" type="curve" smooth="yes"/>
      <point x="997.856" y="243"/>
      <point x="839.649" y="-18"/>
      <point x="567.857" y="-18" type="curve" smooth="yes"/>
      <point x="321.461" y="-18"/>
      <point x="214.856" y="154"/>
    </contour>
    <contour>
      <point x="915.856" y="478" type="curve" smooth="yes"/>
      <point x="915.856" y="640.945"/>
      <point x="833.478" y="787"/>
      <point x="650.856" y="787" type="curve" smooth="yes"/>
      <point x="434.857" y="787"/>
      <point x="298.857" y="551.068"/>
      <point x="298.857" y="345" type="curve" smooth="yes"/>
      <point x="298.857" y="186.589"/>
      <point x="379.857" y="46"/>
      <point x="568.856" y="46" type="curve" smooth="yes"/>
      <point x="787.596" y="46"/>
      <point x="915.856" y="274.414"/>
    </contour>
  </outline>
</glyph>
<glyph name="p" format="1">
  <advance width="1015"/>
  <unicode hex="0070"/>
  <outline>
    <contour>
      <point x="913.666" y="495" type="curve" smooth="yes"/>
      <point x="913.666" y="652"/>
      <point x="848.666" y="789"/>
      <point x="705.666" y="789" type="curve" smooth="yes"/>
      <point x="498.792" y="789"/>
      <point x="374.536" y="587.619"/>
      <point x="357.647" y="394.03" type="curve" smooth="yes"/>
      <point x="356.331" y="378.94"/>
      <point x="355.666" y="363.897"/>
      <point x="355.666" y="349" type="curve" smooth="yes"/>
      <point x="355.666" y="188"/>
      <point x="429.666" y="43"/>
      <point x="596.666" y="43" type="curve" smooth="yes"/>
      <point x="798.666" y="43"/>
      <point x="913.666" y="286"/>
    </contour>
    <contour>
      <point x="144.666" y="-268" type="line"/>
      <point x="354.666" y="771" type="line"/>
      <point x="185.666" y="771" type="line"/>
      <point x="198.666" y="828" type="line"/>
      <point x="452.666" y="828" type="line"/>
      <point x="420.666" y="686" type="line"/>
      <point x="480.666" y="793"/>
      <point x="592.666" y="851"/>
      <point x="701.666" y="851" type="curve" smooth="yes"/>
      <point x="896.666" y="851"/>
      <point x="987.666" y="678"/>
      <point x="987.666" y="486" type="curve" smooth="yes"/>
      <point x="987.666" y="248"/>
      <point x="847.666" y="-18"/>
      <point x="594.666" y="-18" type="curve" smooth="yes"/>
      <point x="470.666" y="-18"/>
      <point x="350.666" y="65"/>
      <point x="321.666" y="233" type="curve"/>
      <point x="226.666" y="-268" type="line"/>
      <point x="425.666" y="-268" type="line"/>
      <point x="412.666" y="-329" type="line"/>
      <point x="-40.3336" y="-329" type="line"/>
      <point x="-26.3336" y="-268" type="line"/>
    </contour>
  </outline>
</glyph>
<glyph name="q" format="1">
  <advance width="1002"/>
  <unicode hex="0071"/>
  <outline>
    <contour>
      <point x="523.656" y="-329" type="line"/>
      <point x="537.656" y="-268" type="line"/>
      <point x="702.656" y="-268" type="line"/>
      <point x="787.656" y="145" type="line"/>
      <point x="728.656" y="39"/>
      <point x="620.656" y="-18"/>
      <point x="516.656" y="-18" type="curve" smooth="yes"/>
      <point x="307.656" y="-18"/>
      <point x="210.656" y="158"/>
      <point x="210.656" y="352" type="curve" smooth="yes"/>
      <point x="210.656" y="588"/>
      <point x="354.656" y="850"/>
      <point x="613.656" y="850" type="curve" smooth="yes"/>
      <point x="737.656" y="850"/>
      <point x="857.656" y="766"/>
      <point x="886.656" y="598" type="curve"/>
      <point x="925.656" y="828" type="line"/>
      <point x="1009.66" y="828" type="line"/>
      <point x="789.656" y="-268" type="line"/>
      <point x="957.656" y="-268" type="line"/>
      <point x="945.656" y="-329" type="line"/>
    </contour>
    <contour>
      <point x="283.656" y="342" type="curve" smooth="yes"/>
      <point x="283.656" y="183"/>
      <point x="354.656" y="43"/>
      <point x="512.656" y="43" type="curve" smooth="yes"/>
      <point x="714.822" y="43"/>
      <point x="836.395" y="247.109"/>
      <point x="851.139" y="442.153" type="curve" smooth="yes"/>
      <point x="852.148" y="455.501"/>
      <point x="852.656" y="468.806"/>
      <point x="852.656" y="482" type="curve" smooth="yes"/>
      <point x="852.656" y="644"/>
      <point x="777.656" y="788"/>
      <point x="611.656" y="788" type="curve" smooth="yes"/>
      <point x="404.656" y="788"/>
      <point x="283.656" y="549"/>
    </contour>
  </outline>
</glyph>
<glyph name="r" format="1">
  <advance width="736"/>
  <unicode hex="0072"/>
  <outline>
    <contour>
      <point x="355" y="569" type="line"/>
      <point x="435" y="782"/>
      <point x="565" y="851"/>
      <point x="678" y="851" type="curve" smooth="yes"/>
      <point x="743" y="851"/>
      <point x="756" y="821"/>
      <point x="756" y="748" type="curve" smooth="yes"/>
      <point x="756" y="666" type="line"/>
      <point x="687" y="653" type="line"/>
      <point x="687" y="673"/>
      <point x="688" y="689"/>
      <point x="688" y="704" type="curve" smooth="yes"/>
      <point x="688" y="778"/>
      <point x="685" y="789"/>
      <point x="659" y="789" type="curve" smooth="yes"/>
      <point x="568" y="789"/>
      <point x="414" y="686"/>
      <point x="372" y="469" type="curve"/>
    </contour>
    <component base="lc_main_stem"/>
  </outline>
</glyph>
<glyph name="s" format="1">
  <advance width="761"/>
  <unicode hex="0073"/>
  <outline>
    <contour>
      <point x="676.422" y="199" type="curve" smooth="yes"/>
      <point x="676.422" y="60"/>
      <point x="548.422" y="-18"/>
      <point x="397.422" y="-18" type="curve" smooth="yes"/>
      <point x="300.422" y="-18"/>
      <point x="188.422" y="28"/>
      <point x="188.422" y="91" type="curve" smooth="yes"/>
      <point x="188.422" y="92"/>
      <point x="189.422" y="94"/>
      <point x="203.422" y="202" type="curve"/>
      <point x="276.422" y="214" type="line"/>
      <point x="262.422" y="112"/>
      <point x="260.422" y="110"/>
      <point x="260.422" y="108" type="curve" smooth="yes"/>
      <point x="260.422" y="64"/>
      <point x="334.422" y="43"/>
      <point x="416.422" y="43" type="curve" smooth="yes"/>
      <point x="503.422" y="43"/>
      <point x="590.422" y="87"/>
      <point x="590.422" y="204" type="curve" smooth="yes"/>
      <point x="590.422" y="299"/>
      <point x="512.172" y="354.25"/>
      <point x="433.922" y="411.125" type="curve" smooth="yes"/>
      <point x="355.672" y="468"/>
      <point x="277.422" y="526.5"/>
      <point x="277.422" y="628" type="curve" smooth="yes"/>
      <point x="277.422" y="771"/>
      <point x="390.422" y="851"/>
      <point x="525.422" y="851" type="curve" smooth="yes"/>
      <point x="620.422" y="851"/>
      <point x="725.422" y="810"/>
      <point x="719.422" y="761" type="curve" smooth="yes"/>
      <point x="705.422" y="652" type="line"/>
      <point x="634.422" y="633" type="line"/>
      <point x="646.422" y="753" type="line" smooth="yes"/>
      <point x="647.422" y="764"/>
      <point x="593.422" y="792"/>
      <point x="522.422" y="792" type="curve" smooth="yes"/>
      <point x="426.422" y="792"/>
      <point x="359.422" y="733"/>
      <point x="359.422" y="635" type="curve" smooth="yes"/>
      <point x="359.422" y="550"/>
      <point x="438.672" y="498"/>
      <point x="517.922" y="438.75" type="curve" smooth="yes"/>
      <point x="597.172" y="379.5"/>
      <point x="676.422" y="313"/>
    </contour>
  </outline>
</glyph>
<glyph name="t" format="1">
  <advance width="628"/>
  <unicode hex="0074"/>
  <outline>
    <contour>
      <point x="183.459" y="770" type="line"/>
      <point x="198.459" y="828" type="line"/>
      <point x="360.459" y="828" type="line"/>
      <point x="426.459" y="1141" type="line"/>
      <point x="517.459" y="1177" type="line"/>
      <point x="443.459" y="828" type="line"/>
      <point x="616.459" y="828" type="line"/>
      <point x="600.459" y="770" type="line"/>
      <point x="432.459" y="770" type="line"/>
      <point x="315.459" y="210" type="line"/>
      <point x="309.715" y="186.064"/>
      <point x="304.465" y="157.886"/>
      <point x="304.465" y="132.004" type="curve" smooth="yes"/>
      <point x="304.465" y="88.8031"/>
      <point x="319.091" y="52"/>
      <point x="370.459" y="52" type="curve" smooth="yes"/>
      <point x="437.459" y="52"/>
      <point x="471.459" y="135"/>
      <point x="495.459" y="213" type="curve"/>
      <point x="549.459" y="192" type="line"/>
      <point x="516.459" y="65"/>
      <point x="457.459" y="-9"/>
      <point x="360.459" y="-9" type="curve" smooth="yes"/>
      <point x="268.124" y="-9"/>
      <point x="222.716" y="59.1995"/>
      <point x="222.716" y="144.594" type="curve" smooth="yes"/>
      <point x="222.716" y="164.98"/>
      <point x="225.304" y="186.347"/>
      <point x="230.459" y="208" type="curve"/>
      <point x="347.459" y="770" type="line"/>
    </contour>
  </outline>
</glyph>
<glyph name="u" format="1">
  <advance width="1056"/>
  <unicode hex="0075"/>
  <outline>
    <contour>
      <point x="882.459" y="828" type="line"/>
      <point x="790.459" y="363" type="line" smooth="yes"/>
      <point x="747.459" y="145"/>
      <point x="583.459" y="43"/>
      <point x="475.459" y="43" type="curve" smooth="yes"/>
      <point x="377.59" y="43"/>
      <point x="329.375" y="90.2027"/>
      <point x="329.375" y="189.888" type="curve" smooth="yes"/>
      <point x="329.375" y="217.521"/>
      <point x="333.08" y="249.188"/>
      <point x="340.459" y="285" type="curve"/>
      <point x="442.459" y="828" type="line"/>
      <point x="200.459" y="828" type="line"/>
      <point x="186.459" y="770" type="line"/>
      <point x="349.459" y="770" type="line"/>
      <point x="255.459" y="286" type="line" smooth="yes"/>
      <point x="248.465" y="250.67"/>
      <point x="244.976" y="218.202"/>
      <point x="244.976" y="188.706" type="curve" smooth="yes"/>
      <point x="244.976" y="53.7358"/>
      <point x="318.023" y="-19"/>
      <point x="462.459" y="-19" type="curve" smooth="yes"/>
      <point x="583.459" y="-19"/>
      <point x="691.459" y="40"/>
      <point x="760.459" y="164" type="curve"/>
      <point x="758.031" y="148.754"/>
      <point x="756.858" y="134.491"/>
      <point x="756.858" y="121.223" type="curve" smooth="yes"/>
      <point x="756.858" y="36.1535"/>
      <point x="805.062" y="-8"/>
      <point x="879.459" y="-8" type="curve" smooth="yes"/>
      <point x="979.459" y="-8"/>
      <point x="1035.46" y="63"/>
      <point x="1072.46" y="188" type="curve"/>
      <point x="1013.46" y="210" type="line"/>
      <point x="994.459" y="134"/>
      <point x="956.459" y="52"/>
      <point x="889.459" y="52" type="curve" smooth="yes"/>
      <point x="842.267" y="52"/>
      <point x="830.161" y="84.4977"/>
      <point x="830.161" y="120.344" type="curve" smooth="yes"/>
      <point x="830.161" y="151.341"/>
      <point x="839.213" y="184.842"/>
      <point x="842.459" y="202" type="curve" smooth="yes"/>
      <point x="964.459" y="828" type="line"/>
    </contour>
  </outline>
</glyph>
<glyph name="v" format="1">
  <advance width="951"/>
  <unicode hex="0076"/>
  <outline>
    <contour>
      <point x="318.471" y="771" type="line"/>
      <point x="168.471" y="771" type="line"/>
      <point x="179.471" y="828" type="line"/>
      <point x="388.471" y="828" type="line"/>
      <point x="482.471" y="60" type="line"/>
      <point x="720.471" y="427" type="line" smooth="yes"/>
      <point x="829.471" y="594"/>
      <point x="857.471" y="688"/>
      <point x="857.471" y="752" type="curve" smooth="yes"/>
      <point x="857.471" y="790"/>
      <point x="848.471" y="813"/>
      <point x="840.471" y="828" type="curve"/>
      <point x="922.471" y="828" type="line"/>
      <point x="935.471" y="815"/>
      <point x="945.471" y="764"/>
      <point x="945.471" y="738" type="curve" smooth="yes"/>
      <point x="945.471" y="651"/>
      <point x="887.471" y="551"/>
      <point x="775.471" y="385" type="curve" smooth="yes"/>
      <point x="530.471" y="21" type="line"/>
      <point x="509.471" y="-7"/>
      <point x="476.471" y="-19"/>
      <point x="458.471" y="-19" type="curve" smooth="yes"/>
      <point x="434.471" y="-19"/>
      <point x="417.471" y="-3"/>
      <point x="414.471" y="23" type="curve" smooth="yes"/>
    </contour>
  </outline>
</glyph>
<glyph name="w" format="1">
  <advance width="1413"/>
  <unicode hex="0077"/>
  <outline>
    <contour>
      <point x="303.666" y="771" type="line"/>
      <point x="152.666" y="771" type="line"/>
      <point x="164.666" y="828" type="line"/>
      <point x="373.666" y="828" type="line"/>
      <point x="426.666" y="60" type="line"/>
      <point x="851.666" y="828" type="line"/>
      <point x="901.666" y="828" type="line"/>
      <point x="963.666" y="60" type="line"/>
      <point x="1202.67" y="457" type="line"/>
      <point x="1263.67" y="554"/>
      <point x="1319.67" y="667"/>
      <point x="1319.67" y="774" type="curve" smooth="yes"/>
      <point x="1319.67" y="797"/>
      <point x="1315.67" y="819"/>
      <point x="1310.67" y="840" type="curve"/>
      <point x="1352.67" y="840" type="line" smooth="yes"/>
      <point x="1406.67" y="840"/>
      <point x="1411.67" y="786"/>
      <point x="1411.67" y="760" type="curve" smooth="yes"/>
      <point x="1411.67" y="673"/>
      <point x="1363.67" y="585"/>
      <point x="1257.67" y="415" type="curve" smooth="yes"/>
      <point x="1011.67" y="21" type="line"/>
      <point x="989.666" y="-7"/>
      <point x="957.666" y="-19"/>
      <point x="938.666" y="-19" type="curve" smooth="yes"/>
      <point x="915.666" y="-19"/>
      <point x="896.666" y="-3"/>
      <point x="894.666" y="23" type="curve" smooth="yes"/>
      <point x="839.666" y="660" type="line"/>
      <point x="473.666" y="21" type="line"/>
      <point x="452.666" y="-7"/>
      <point x="419.666" y="-19"/>
      <point x="401.666" y="-19" type="curve" smooth="yes"/>
      <point x="378.666" y="-19"/>
      <point x="358.666" y="-3"/>
      <point x="357.666" y="23" type="curve" smooth="yes"/>
    </contour>
  </outline>
</glyph>
<glyph name="x" format="1">
  <advance width="1059"/>
  <unicode hex="0078"/>
  <outline>
    <contour>
      <point x="534.258" y="715" type="curve" smooth="yes"/>
      <point x="617.258" y="504" type="line"/>
      <point x="775.258" y="744" type="line" smooth="yes"/>
      <point x="808.258" y="795"/>
      <point x="860.258" y="835"/>
      <point x="919.258" y="835" type="curve" smooth="yes"/>
      <point x="960.258" y="835"/>
      <point x="1006.26" y="816"/>
      <point x="1051.26" y="767" type="curve"/>
      <point x="1004.26" y="710" type="line"/>
      <point x="976.258" y="747"/>
      <point x="948.258" y="767"/>
      <point x="918.258" y="767" type="curve" smooth="yes"/>
      <point x="886.258" y="767"/>
      <point x="853.258" y="741"/>
      <point x="818.258" y="687" type="curve" smooth="yes"/>
      <point x="647.258" y="428" type="line"/>
      <point x="774.258" y="109" type="line" smooth="yes"/>
      <point x="791.258" y="66"/>
      <point x="816.258" y="49"/>
      <point x="843.258" y="49" type="curve" smooth="yes"/>
      <point x="886.258" y="49"/>
      <point x="930.258" y="94"/>
      <point x="947.258" y="171" type="curve"/>
      <point x="1007.26" y="159" type="line"/>
      <point x="999.258" y="49"/>
      <point x="912.258" y="-15"/>
      <point x="833.258" y="-15" type="curve" smooth="yes"/>
      <point x="780.258" y="-15"/>
      <point x="733.258" y="11"/>
      <point x="709.258" y="72" type="curve" smooth="yes"/>
      <point x="597.258" y="353" type="line"/>
      <point x="411.258" y="69" type="line" smooth="yes"/>
      <point x="377.258" y="18"/>
      <point x="320.258" y="-17"/>
      <point x="266.258" y="-17" type="curve" smooth="yes"/>
      <point x="225.258" y="-17"/>
      <point x="179.258" y="2"/>
      <point x="134.258" y="51" type="curve"/>
      <point x="180.258" y="108" type="line"/>
      <point x="210.258" y="70"/>
      <point x="237.258" y="51"/>
      <point x="267.258" y="51" type="curve" smooth="yes"/>
      <point x="299.258" y="51"/>
      <point x="333.258" y="71"/>
      <point x="369.258" y="125" type="curve" smooth="yes"/>
      <point x="567.258" y="427" type="line"/>
      <point x="470.258" y="670" type="line"/>
      <point x="442.258" y="737"/>
      <point x="414.258" y="769"/>
      <point x="376.258" y="769" type="curve" smooth="yes"/>
      <point x="348.258" y="769"/>
      <point x="322.258" y="758"/>
      <point x="291.258" y="731" type="curve"/>
      <point x="260.258" y="798" type="line"/>
      <point x="306.258" y="826"/>
      <point x="348.258" y="837"/>
      <point x="386.258" y="837" type="curve" smooth="yes"/>
      <point x="463.258" y="837"/>
      <point x="506.258" y="784"/>
    </contour>
  </outline>
</glyph>
<glyph name="y" format="1">
  <advance width="1029"/>
  <unicode hex="0079"/>
  <outline>
    <contour>
      <point x="765.459" y="51" type="curve"/>
      <point x="791.459" y="155" type="line"/>
      <point x="722.459" y="45"/>
      <point x="617.459" y="-19"/>
      <point x="497.459" y="-19" type="curve" smooth="yes"/>
      <point x="352.566" y="-19"/>
      <point x="279.758" y="57.8421"/>
      <point x="279.758" y="190.211" type="curve" smooth="yes"/>
      <point x="279.758" y="219.499"/>
      <point x="283.323" y="251.506"/>
      <point x="290.459" y="286" type="curve"/>
      <point x="385.459" y="770" type="line"/>
      <point x="222.459" y="770" type="line"/>
      <point x="236.459" y="828" type="line"/>
      <point x="477.459" y="828" type="line"/>
      <point x="370" y="283" type="line" smooth="yes"/>
      <point x="364.248" y="253.32"/>
      <point x="360.893" y="224.592"/>
      <point x="360.893" y="197.95" type="curve" smooth="yes"/>
      <point x="360.893" y="108.798"/>
      <point x="398.458" y="43"/>
      <point x="509.459" y="43" type="curve" smooth="yes"/>
      <point x="617.459" y="43"/>
      <point x="780.459" y="145"/>
      <point x="824.459" y="363" type="curve" smooth="yes"/>
      <point x="916.459" y="828" type="line"/>
      <point x="1000.46" y="828" type="line"/>
      <point x="846.459" y="49" type="line" smooth="yes"/>
      <point x="794.459" y="-212"/>
      <point x="649.459" y="-312"/>
      <point x="452.459" y="-312" type="curve" smooth="yes"/>
      <point x="356.459" y="-312"/>
      <point x="268.459" y="-285"/>
      <point x="198.459" y="-225" type="curve"/>
      <point x="235.459" y="-174" type="line"/>
      <point x="284.459" y="-219"/>
      <point x="359.459" y="-251"/>
      <point x="452.459" y="-251" type="curve" smooth="yes"/>
      <point x="620.459" y="-251"/>
      <point x="710.459" y="-179"/>
    </contour>
  </outline>
</glyph>
<glyph name="z" format="1">
  <advance width="883"/>
  <unicode hex="007A"/>
  <outline>
    <contour>
      <point x="746.472" y="0" type="curve"/>
      <point x="197.472" y="0" type="line" smooth="yes"/>
      <point x="183.472" y="0"/>
      <point x="179.472" y="15"/>
      <point x="177.472" y="29" type="curve"/>
      <point x="769.472" y="770" type="line"/>
      <point x="407.472" y="770" type="line"/>
      <point x="322.472" y="640" type="line"/>
      <point x="253.472" y="659" type="line"/>
      <point x="348.472" y="828" type="line"/>
      <point x="857.472" y="828" type="line"/>
      <point x="865.472" y="771" type="line" smooth="yes"/>
      <point x="866.472" y="770"/>
      <point x="291" y="58"/>
      <point x="291" y="58" type="curve"/>
      <point x="704.472" y="58" type="line"/>
      <point x="718.472" y="84"/>
      <point x="732.472" y="124"/>
      <point x="746.472" y="206" type="curve"/>
      <point x="806.472" y="184" type="line"/>
      <point x="794.472" y="91"/>
      <point x="778.472" y="33"/>
    </contour>
  </outline>
</glyph>
<glyph name="sterling" format="1">
  <advance width="1069"/>
  <unicode hex="00A3"/>
  <outline>
    <contour>
      <point x="381" y="635" type="line"/>
      <point x="355" y="719"/>
      <point x="325" y="810"/>
      <point x="325" y="899" type="curve" smooth="yes"/>
      <point x="325" y="1157"/>
      <point x="528" y="1306"/>
      <point x="768" y="1306" type="curve" smooth="yes"/>
      <point x="950" y="1306"/>
      <point x="1044" y="1225"/>
      <point x="1044" y="1086" type="curve" smooth="yes"/>
      <point x="1044" y="1062"/>
      <point x="1041" y="1035"/>
      <point x="1034" y="1007" type="curve"/>
      <point x="955" y="1007" type="line"/>
      <point x="961" y="1031"/>
      <point x="964" y="1054"/>
      <point x="964" y="1076" type="curve" smooth="yes"/>
      <point x="964" y="1173"/>
      <point x="907" y="1237"/>
      <point x="761" y="1237" type="curve" smooth="yes"/>
      <point x="556" y="1237"/>
      <point x="418" y="1126"/>
      <point x="418" y="914" type="curve" smooth="yes"/>
      <point x="418" y="819"/>
      <point x="452" y="736"/>
      <point x="482" y="635" type="curve"/>
      <point x="875" y="635" type="line"/>
      <point x="865" y="584" type="line"/>
      <point x="493" y="584" type="line"/>
      <point x="530" y="438"/>
      <point x="506" y="301"/>
      <point x="419" y="156" type="curve"/>
      <point x="465" y="76"/>
      <point x="551" y="46"/>
      <point x="645" y="46" type="curve" smooth="yes"/>
      <point x="793" y="46"/>
      <point x="860" y="154"/>
      <point x="885" y="272" type="curve"/>
      <point x="937" y="272" type="line"/>
      <point x="925" y="105"/>
      <point x="808" y="-31"/>
      <point x="633" y="-31" type="curve" smooth="yes"/>
      <point x="532" y="-31"/>
      <point x="442" y="10"/>
      <point x="389" y="109" type="curve"/>
      <point x="297" y="-36"/>
      <point x="135" y="-49"/>
      <point x="86" y="-49" type="curve" smooth="yes"/>
      <point x="-49" y="-49"/>
      <point x="-99" y="11"/>
      <point x="-104" y="88" type="curve" smooth="yes"/>
      <point x="-114" y="241"/>
      <point x="51" y="312"/>
      <point x="166" y="312" type="curve" smooth="yes"/>
      <point x="265" y="312"/>
      <point x="339" y="281"/>
      <point x="380" y="210" type="curve"/>
      <point x="440" y="344"/>
      <point x="423" y="484"/>
      <point x="397" y="584" type="curve"/>
      <point x="139" y="584" type="line"/>
      <point x="149" y="635" type="line"/>
    </contour>
    <contour>
      <point x="351" y="163" type="curve"/>
      <point x="311" y="234"/>
      <point x="253" y="257"/>
      <point x="158" y="254" type="curve" smooth="yes"/>
      <point x="75" y="251"/>
      <point x="-41" y="206"/>
      <point x="-29" y="98" type="curve" smooth="yes"/>
      <point x="-22" y="36"/>
      <point x="28" y="7"/>
      <point x="92" y="7" type="curve" smooth="yes"/>
      <point x="185" y="7"/>
      <point x="305" y="60"/>
    </contour>
  </outline>
</glyph>
<glyph name="logicalnot" format="1">
  <advance width="999"/>
  <unicode hex="00AC"/>
  <outline>
    <contour>
      <point x="89" y="725" type="line"/>
      <point x="857" y="725" type="line"/>
      <point x="770" y="316" type="line"/>
      <point x="690" y="316" type="line"/>
      <point x="760" y="642" type="line"/>
      <point x="72" y="642" type="line"/>
    </contour>
  </outline>
</glyph>
<glyph name="threesuperior" format="1">
  <advance width="846"/>
  <unicode hex="00B3"/>
  <outline>
    <contour>
      <point x="294" y="518" type="line"/>
      <point x="360" y="518" type="line" smooth="yes"/>
      <point x="478" y="518"/>
      <point x="649" y="536"/>
      <point x="649" y="709" type="curve" smooth="yes"/>
      <point x="649" y="800"/>
      <point x="560" y="845"/>
      <point x="466" y="845" type="curve" smooth="yes"/>
      <point x="380" y="845"/>
      <point x="290" y="818"/>
      <point x="226" y="730" type="curve"/>
      <point x="164" y="762" type="line"/>
      <point x="247" y="875"/>
      <point x="369" y="918"/>
      <point x="483" y="918" type="curve" smooth="yes"/>
      <point x="611" y="918"/>
      <point x="731" y="848"/>
      <point x="731" y="721" type="curve" smooth="yes"/>
      <point x="731" y="607"/>
      <point x="651" y="521"/>
      <point x="551" y="482" type="curve"/>
      <point x="622" y="455"/>
      <point x="659" y="392"/>
      <point x="659" y="313" type="curve" smooth="yes"/>
      <point x="659" y="117"/>
      <point x="456" y="-13"/>
      <point x="285" y="-13" type="curve" smooth="yes"/>
      <point x="162" y="-13"/>
      <point x="53" y="48"/>
      <point x="20" y="167" type="curve"/>
      <point x="92" y="208" type="line"/>
      <point x="119" y="105"/>
      <point x="202" y="55"/>
      <point x="307" y="55" type="curve" smooth="yes"/>
      <point x="438" y="55"/>
      <point x="579" y="160"/>
      <point x="579" y="306" type="curve" smooth="yes"/>
      <point x="579" y="433"/>
      <point x="438" y="441"/>
      <point x="316" y="441" type="curve" smooth="yes"/>
      <point x="278" y="441" type="line"/>
    </contour>
  </outline>
</glyph>
<glyph name="paragraph" format="1">
  <advance width="1026"/>
  <unicode hex="00B6"/>
  <outline>
    <contour>
      <point x="575" y="-23" type="line"/>
      <point x="726" y="687" type="line"/>
      <point x="522" y="687" type="line"/>
      <point x="371" y="-23" type="line"/>
      <point x="288" y="-23" type="line"/>
      <point x="439" y="687" type="line"/>
      <point x="401" y="687" type="line" smooth="yes"/>
      <point x="198" y="687"/>
      <point x="106" y="804"/>
      <point x="106" y="934" type="curve" smooth="yes"/>
      <point x="106" y="1095"/>
      <point x="261" y="1284"/>
      <point x="527" y="1284" type="curve" smooth="yes"/>
      <point x="1111" y="1284" type="line"/>
      <point x="1096" y="1218" type="line"/>
      <point x="923" y="1218" type="line"/>
      <point x="660" y="-23" type="line"/>
    </contour>
  </outline>
</glyph>
<glyph name="threequarters" format="1">
  <advance width="1765"/>
  <unicode hex="00BE"/>
  <outline>
    <contour>
      <point x="1110" y="328" type="line"/>
      <point x="1107" y="270" type="line"/>
      <point x="1469" y="270" type="line"/>
      <point x="1424" y="63" type="line"/>
      <point x="1308" y="63" type="line"/>
      <point x="1295" y="0" type="line"/>
      <point x="1604" y="0" type="line"/>
      <point x="1617" y="63" type="line"/>
      <point x="1500" y="63" type="line"/>
      <point x="1545" y="270" type="line"/>
      <point x="1730" y="270" type="line"/>
      <point x="1744" y="336" type="line"/>
      <point x="1558" y="336" type="line"/>
      <point x="1679" y="901" type="line"/>
      <point x="1584" y="901" type="line"/>
    </contour>
    <contour>
      <point x="255" y="898" type="line"/>
      <point x="321" y="898" type="line" smooth="yes"/>
      <point x="438" y="898"/>
      <point x="608" y="914"/>
      <point x="608" y="1087" type="curve" smooth="yes"/>
      <point x="608" y="1179"/>
      <point x="521" y="1225"/>
      <point x="427" y="1225" type="curve" smooth="yes"/>
      <point x="341" y="1225"/>
      <point x="250" y="1197"/>
      <point x="186" y="1110" type="curve"/>
      <point x="125" y="1141" type="line"/>
      <point x="208" y="1255"/>
      <point x="330" y="1297"/>
      <point x="444" y="1297" type="curve" smooth="yes"/>
      <point x="572" y="1297"/>
      <point x="692" y="1228"/>
      <point x="692" y="1101" type="curve" smooth="yes"/>
      <point x="692" y="985"/>
      <point x="611" y="900"/>
      <point x="512" y="863" type="curve"/>
      <point x="582" y="834"/>
      <point x="620" y="772"/>
      <point x="620" y="695" type="curve" smooth="yes"/>
      <point x="620" y="498"/>
      <point x="418" y="366"/>
      <point x="245" y="366" type="curve" smooth="yes"/>
      <point x="122" y="366"/>
      <point x="14" y="427"/>
      <point x="-20" y="548" type="curve"/>
      <point x="53" y="588" type="line"/>
      <point x="80" y="484"/>
      <point x="162" y="435"/>
      <point x="267" y="435" type="curve" smooth="yes"/>
      <point x="397" y="435"/>
      <point x="540" y="539"/>
      <point x="540" y="684" type="curve" smooth="yes"/>
      <point x="540" y="814"/>
      <point x="398" y="821"/>
      <point x="276" y="821" type="curve" smooth="yes"/>
      <point x="238" y="821" type="line"/>
    </contour>
    <contour>
      <point x="1483" y="336" type="line"/>
      <point x="1205" y="336" type="line"/>
      <point x="1333" y="496"/>
      <point x="1452" y="641"/>
      <point x="1582" y="799" type="curve"/>
    </contour>
    <contour>
      <point x="604" y="-23" type="line"/>
      <point x="1274" y="1306" type="line"/>
      <point x="1347" y="1306" type="line"/>
      <point x="683" y="-23" type="line"/>
    </contour>
  </outline>
</glyph>
<glyph name="questiondown" format="1">
  <advance width="694"/>
  <unicode hex="00BF"/>
  <outline>
    <contour>
      <point x="550" y="204" type="curve"/>
      <point x="606" y="166" type="line"/>
      <point x="521" y="34"/>
      <point x="385" y="-23"/>
      <point x="251" y="-23" type="curve" smooth="yes"/>
      <point x="93" y="-23"/>
      <point x="-23" y="68"/>
      <point x="-23" y="219" type="curve" smooth="yes"/>
      <point x="-23" y="242"/>
      <point x="-21" y="264"/>
      <point x="-16" y="289" type="curve" smooth="yes"/>
      <point x="52" y="612"/>
      <point x="352" y="525"/>
      <point x="467" y="948" type="curve"/>
      <point x="501" y="948" type="line"/>
      <point x="403" y="489"/>
      <point x="122" y="558"/>
      <point x="65" y="289" type="curve" smooth="yes"/>
      <point x="61" y="269"/>
      <point x="59" y="252"/>
      <point x="59" y="234" type="curve" smooth="yes"/>
      <point x="59" y="135"/>
      <point x="120" y="51"/>
      <point x="264" y="51" type="curve" smooth="yes"/>
      <point x="396" y="51"/>
      <point x="494" y="114"/>
    </contour>
    <contour>
      <point x="482" y="1190" type="line"/>
      <point x="498" y="1272" type="line"/>
      <point x="586" y="1272" type="line"/>
      <point x="569" y="1190" type="line"/>
    </contour>
  </outline>
</glyph>
<glyph name="germandbls" format="1">
  <advance width="1114"/>
  <unicode hex="00DF"/>
  <outline>
    <contour>
      <point x="185" y="64" type="line"/>
      <point x="306" y="64" type="line"/>
      <point x="292" y="0" type="line"/>
      <point x="-72" y="0" type="line"/>
      <point x="-59" y="64" type="line"/>
      <point x="101" y="64" type="line"/>
      <point x="275" y="885" type="line" smooth="yes"/>
      <point x="331" y="1151"/>
      <point x="472" y="1306"/>
      <point x="727" y="1306" type="curve" smooth="yes"/>
      <point x="933" y="1306"/>
      <point x="1032" y="1185"/>
      <point x="1032" y="1054" type="curve" smooth="yes"/>
      <point x="1032" y="918"/>
      <point x="934" y="741"/>
      <point x="736" y="704" type="curve"/>
      <point x="929" y="696"/>
      <point x="1037" y="577"/>
      <point x="1037" y="424" type="curve" smooth="yes"/>
      <point x="1037" y="187"/>
      <point x="838" y="0"/>
      <point x="449" y="0" type="curve"/>
      <point x="463" y="64" type="line"/>
      <point x="684" y="64"/>
      <point x="899" y="126"/>
      <point x="947" y="351" type="curve" smooth="yes"/>
      <point x="952" y="373"/>
      <point x="954" y="397"/>
      <point x="954" y="419" type="curve" smooth="yes"/>
      <point x="954" y="554"/>
      <point x="860" y="667"/>
      <point x="599" y="667" type="curve"/>
      <point x="608" y="713" type="line"/>
      <point x="818" y="723"/>
      <point x="948" y="900"/>
      <point x="948" y="1041" type="curve" smooth="yes"/>
      <point x="948" y="1143"/>
      <point x="874" y="1228"/>
      <point x="715" y="1228" type="curve" smooth="yes"/>
      <point x="501" y="1228"/>
      <point x="411" y="1132"/>
      <point x="360" y="890" type="curve" smooth="yes"/>
    </contour>
  </outline>
</glyph>
<glyph name="ae" format="1">
  <advance width="1532"/>
  <unicode hex="00E6"/>
  <outline>
    <contour>
      <point x="384" y="-18" type="curve" smooth="yes"/>
      <point x="184" y="-18"/>
      <point x="66" y="129"/>
      <point x="66" y="325" type="curve" smooth="yes"/>
      <point x="66" y="589"/>
      <point x="239" y="851"/>
      <point x="501" y="851" type="curve" smooth="yes"/>
      <point x="639" y="851"/>
      <point x="723" y="769"/>
      <point x="756" y="676" type="curve"/>
      <point x="787" y="828" type="line"/>
      <point x="866" y="828" type="line"/>
      <point x="823" y="665" type="line"/>
      <point x="901" y="777"/>
      <point x="1010" y="851"/>
      <point x="1144" y="851" type="curve" smooth="yes"/>
      <point x="1329" y="851"/>
      <point x="1443" y="711"/>
      <point x="1443" y="532" type="curve" smooth="yes"/>
      <point x="1443" y="503"/>
      <point x="1438" y="440"/>
      <point x="1432" y="420" type="curve"/>
      <point x="802" y="420" type="line"/>
      <point x="797" y="401"/>
      <point x="796" y="378"/>
      <point x="796" y="358" type="curve" smooth="yes"/>
      <point x="796" y="156"/>
      <point x="920" y="43"/>
      <point x="1065" y="43" type="curve" smooth="yes"/>
      <point x="1163" y="43"/>
      <point x="1272" y="95"/>
      <point x="1359" y="208" type="curve"/>
      <point x="1409" y="170" type="line"/>
      <point x="1321" y="43"/>
      <point x="1187" y="-18"/>
      <point x="1062" y="-18" type="curve" smooth="yes"/>
      <point x="919" y="-18"/>
      <point x="778" y="78"/>
      <point x="732" y="257" type="curve"/>
      <point x="674" y="112"/>
      <point x="562" y="-18"/>
    </contour>
    <contour>
      <point x="509" y="789" type="curve" smooth="yes"/>
      <point x="271" y="789"/>
      <point x="151" y="530"/>
      <point x="151" y="325" type="curve" smooth="yes"/>
      <point x="151" y="171"/>
      <point x="227" y="43"/>
      <point x="393" y="43" type="curve" smooth="yes"/>
      <point x="622" y="43"/>
      <point x="727" y="325"/>
      <point x="727" y="544" type="curve" smooth="yes"/>
      <point x="727" y="662"/>
      <point x="656" y="789"/>
    </contour>
    <contour>
      <point x="1375" y="542" type="curve" smooth="yes"/>
      <point x="1375" y="684"/>
      <point x="1284" y="789"/>
      <point x="1146" y="789" type="curve" smooth="yes"/>
      <point x="996" y="789"/>
      <point x="856" y="678"/>
      <point x="812" y="476" type="curve"/>
      <point x="1369" y="476" type="line"/>
      <point x="1373" y="500"/>
      <point x="1375" y="521"/>
    </contour>
  </outline>
</glyph>
<glyph name="oslash" format="1">
  <advance width="924"/>
  <unicode hex="00F8"/>
  <outline>
    <contour>
      <point x="845" y="941" type="line"/>
      <point x="882" y="917" type="line"/>
      <point x="126" y="-128" type="line"/>
      <point x="90" y="-103" type="line"/>
    </contour>
  </outline>
</glyph>
<glyph name="dotlessi" format="1">
  <advance width="524"/>
  <unicode hex="0131"/>
  <outline>
    <contour>
      <point x="117" y="208" type="curve" smooth="yes"/>
      <point x="236" y="785" type="line"/>
      <point x="68" y="785" type="line"/>
      <point x="80" y="844" type="line"/>
      <point x="334" y="844" type="line"/>
      <point x="202" y="210" type="line" smooth="yes"/>
      <point x="197.538" y="187.688"/>
      <point x="190.686" y="162.19"/>
      <point x="190.686" y="137.77" type="curve" smooth="yes"/>
      <point x="190.686" y="134.829"/>
      <point x="190.785" y="131.903"/>
      <point x="191" y="129" type="curve"/>
      <point x="191" y="87"/>
      <point x="205" y="52"/>
      <point x="257" y="52" type="curve" smooth="yes"/>
      <point x="323" y="52"/>
      <point x="357" y="135"/>
      <point x="381" y="213" type="curve"/>
      <point x="435" y="192" type="line"/>
      <point x="402" y="65"/>
      <point x="344" y="-9"/>
      <point x="247" y="-9" type="curve" smooth="yes"/>
      <point x="153" y="-9"/>
      <point x="110" y="56"/>
      <point x="110" y="143" type="curve" smooth="yes"/>
      <point x="110" y="163"/>
      <point x="112" y="186"/>
    </contour>
  </outline>
</glyph>
<glyph name="OE" format="1">
  <advance width="1954"/>
  <unicode hex="0152"/>
  <outline>
    <contour>
      <point x="1905" y="1211" type="line"/>
      <point x="1240" y="1211" type="line"/>
      <point x="1130" y="693" type="line"/>
      <point x="1580" y="693" type="line"/>
      <point x="1616" y="857" type="line"/>
      <point x="1685" y="857" type="line"/>
      <point x="1597" y="441" type="line"/>
      <point x="1527" y="441" type="line"/>
      <point x="1565" y="620" type="line"/>
      <point x="1114" y="620" type="line"/>
      <point x="996" y="72" type="line"/>
      <point x="1685" y="72" type="line"/>
      <point x="1753" y="392" type="line"/>
      <point x="1833" y="392" type="line"/>
      <point x="1751" y="0" type="line"/>
      <point x="617" y="0" type="line" smooth="yes"/>
      <point x="240" y="0"/>
      <point x="70" y="229"/>
      <point x="70" y="497" type="curve" smooth="yes"/>
      <point x="70" y="856"/>
      <point x="380" y="1284"/>
      <point x="889" y="1284" type="curve" smooth="yes"/>
      <point x="2000" y="1284" type="line"/>
      <point x="1918" y="892" type="line"/>
      <point x="1837" y="892" type="line"/>
    </contour>
    <contour>
      <point x="912" y="72" type="line"/>
      <point x="1154" y="1205" type="line"/>
      <point x="873" y="1205" type="line" smooth="yes"/>
      <point x="423" y="1205"/>
      <point x="159" y="822"/>
      <point x="159" y="506" type="curve" smooth="yes"/>
      <point x="159" y="270"/>
      <point x="303" y="72"/>
      <point x="631" y="72" type="curve" smooth="yes"/>
    </contour>
  </outline>
</glyph>
<glyph name="dotlessj" format="1">
  <advance width="422"/>
  <unicode hex="0237"/>
  <outline>
    <contour>
      <point x="90" y="-36" type="curve" smooth="yes"/>
      <point x="262" y="769" type="line"/>
      <point x="119" y="769" type="line"/>
      <point x="131" y="828" type="line"/>
      <point x="356" y="828" type="line"/>
      <point x="176" y="-22" type="line"/>
      <point x="148" y="-149"/>
      <point x="121" y="-282"/>
      <point x="-99" y="-282" type="curve" smooth="yes"/>
      <point x="-184" y="-282" type="line"/>
      <point x="-171" y="-219" type="line"/>
      <point x="-89" y="-219" type="line" smooth="yes"/>
      <point x="52" y="-219"/>
      <point x="65" y="-155"/>
    </contour>
  </outline>
</glyph>
<glyph name="circumflex" format="1">
  <advance width="618"/>
  <unicode hex="02C6"/>
  <outline>
    <contour>
      <point x="215" y="959" type="line"/>
      <point x="129" y="959" type="line"/>
      <point x="335" y="1243" type="line"/>
      <point x="434" y="1243" type="line"/>
      <point x="525" y="959" type="line"/>
      <point x="432" y="959" type="line"/>
      <point x="374" y="1192" type="line"/>
    </contour>
  </outline>
</glyph>
<glyph name="breve" format="1">
  <advance width="623"/>
  <unicode hex="02D8"/>
  <outline>
    <contour>
      <point x="212" y="1298" type="curve"/>
      <point x="265" y="1298" type="line"/>
      <point x="264" y="1291"/>
      <point x="263" y="1284"/>
      <point x="263" y="1278" type="curve" smooth="yes"/>
      <point x="263" y="1214"/>
      <point x="308" y="1182"/>
      <point x="359" y="1182" type="curve" smooth="yes"/>
      <point x="415" y="1182"/>
      <point x="479" y="1219"/>
      <point x="507" y="1298" type="curve"/>
      <point x="552" y="1298" type="line"/>
      <point x="515" y="1182"/>
      <point x="425" y="1124"/>
      <point x="347" y="1124" type="curve" smooth="yes"/>
      <point x="274" y="1124"/>
      <point x="211" y="1174"/>
      <point x="211" y="1274" type="curve" smooth="yes"/>
      <point x="211" y="1283"/>
      <point x="211" y="1290"/>
    </contour>
  </outline>
</glyph>
<glyph name="ogonek" format="1">
  <advance width="539"/>
  <unicode hex="02DB"/>
  <outline>
    <contour>
      <point x="243" y="0" type="curve"/>
      <point x="298" y="0" type="line"/>
      <point x="206" y="-71"/>
      <point x="160" y="-151"/>
      <point x="160" y="-211" type="curve" smooth="yes"/>
      <point x="160" y="-268"/>
      <point x="206" y="-290"/>
      <point x="263" y="-290" type="curve" smooth="yes"/>
      <point x="301" y="-290"/>
      <point x="342" y="-279"/>
      <point x="377" y="-266" type="curve"/>
      <point x="364" y="-332" type="line"/>
      <point x="313" y="-362"/>
      <point x="253" y="-378"/>
      <point x="201" y="-378" type="curve" smooth="yes"/>
      <point x="123" y="-378"/>
      <point x="61" y="-344"/>
      <point x="61" y="-269" type="curve" smooth="yes"/>
      <point x="61" y="-185"/>
      <point x="141" y="-65"/>
    </contour>
  </outline>
</glyph>
<glyph name="tilde" format="1">
  <advance width="473"/>
  <unicode hex="02DC"/>
  <outline>
    <contour>
      <point x="-183.117" y="129" type="curve"/>
      <point x="-223.117" y="129" type="line"/>
      <point x="-193.104" y="216.448"/>
      <point x="-134.047" y="255"/>
      <point x="-71.1172" y="255" type="curve" smooth="yes"/>
      <point x="29.9158" y="255"/>
      <point x="105.899" y="210"/>
      <point x="181.883" y="210" type="curve" smooth="yes"/>
      <point x="220.883" y="210"/>
      <point x="253.883" y="227"/>
      <point x="269.883" y="255" type="curve"/>
      <point x="308.883" y="255" type="line"/>
      <point x="280.795" y="174.964"/>
      <point x="227.524" y="126"/>
      <point x="154.883" y="126" type="curve" smooth="yes"/>
      <point x="42.7948" y="126"/>
      <point x="-33.0543" y="171"/>
      <point x="-113.117" y="171" type="curve" smooth="yes"/>
      <point x="-149.117" y="171"/>
      <point x="-169.117" y="157"/>
    </contour>
  </outline>
</glyph>
<glyph name="quotedblleft" format="1">
  <advance width="678"/>
  <unicode hex="201C"/>
  <outline>
    <contour>
      <point x="546" y="997" type="line"/>
      <point x="416" y="997" type="line"/>
      <point x="442" y="1125" type="line"/>
      <point x="465" y="1228"/>
      <point x="518" y="1306"/>
      <point x="623" y="1306" type="curve"/>
      <point x="614" y="1260" type="line"/>
      <point x="539" y="1237"/>
      <point x="529" y="1210"/>
      <point x="511" y="1123" type="curve"/>
      <point x="574" y="1123" type="line"/>
    </contour>
    <contour>
      <point x="312" y="997" type="line"/>
      <point x="180" y="997" type="line"/>
      <point x="208" y="1125" type="line"/>
      <point x="229" y="1228"/>
      <point x="282" y="1306"/>
      <point x="387" y="1306" type="curve"/>
      <point x="378" y="1260" type="line"/>
      <point x="305" y="1237"/>
      <point x="293" y="1210"/>
      <point x="275" y="1123" type="curve"/>
      <point x="338" y="1123" type="line"/>
    </contour>
  </outline>
</glyph>
<glyph name="quotedblright" format="1">
  <advance width="686"/>
  <unicode hex="201D"/>
  <outline>
    <contour>
      <point x="257" y="1284" type="line"/>
      <point x="387" y="1284" type="line"/>
      <point x="361" y="1156" type="line"/>
      <point x="338" y="1054"/>
      <point x="285" y="974"/>
      <point x="180" y="974" type="curve"/>
      <point x="189" y="1022" type="line"/>
      <point x="264" y="1043"/>
      <point x="274" y="1072"/>
      <point x="292" y="1159" type="curve"/>
      <point x="229" y="1159" type="line"/>
    </contour>
    <contour>
      <point x="491" y="1284" type="line"/>
      <point x="623" y="1284" type="line"/>
      <point x="595" y="1156" type="line"/>
      <point x="574" y="1054"/>
      <point x="521" y="974"/>
      <point x="416" y="974" type="curve"/>
      <point x="425" y="1022" type="line"/>
      <point x="498" y="1043"/>
      <point x="510" y="1072"/>
      <point x="528" y="1159" type="curve"/>
      <point x="465" y="1159" type="line"/>
    </contour>
  </outline>
</glyph>
<glyph name="daggerdbl" format="1">
  <advance width="573"/>
  <unicode hex="2021"/>
  <outline>
    <contour>
      <point x="319" y="923" type="curve"/>
      <point x="76" y="897" type="line"/>
      <point x="92" y="978" type="line"/>
      <point x="328" y="960" type="line"/>
      <point x="357" y="1259" type="line"/>
      <point x="467" y="1259" type="line"/>
      <point x="369" y="960" type="line"/>
      <point x="610" y="978" type="line"/>
      <point x="593" y="897" type="line"/>
      <point x="361" y="923" type="line"/>
      <point x="357" y="813"/>
      <point x="273" y="415"/>
      <point x="232" y="311" type="curve"/>
      <point x="472" y="337" type="line"/>
      <point x="456" y="255" type="line"/>
      <point x="223" y="273" type="line"/>
      <point x="194" y="-24" type="line"/>
      <point x="84" y="-24" type="line"/>
      <point x="182" y="273" type="line"/>
      <point x="-61" y="255" type="line"/>
      <point x="-45" y="337" type="line"/>
      <point x="190" y="311" type="line"/>
      <point x="192" y="416"/>
      <point x="278" y="817"/>
    </contour>
  </outline>
</glyph>
<glyph name="ellipsis" format="1">
  <advance width="991"/>
  <unicode hex="2026"/>
  <outline>
    <contour>
      <point x="124" y="124" type="line"/>
      <point x="244" y="124" type="line"/>
      <point x="219" y="0" type="line"/>
      <point x="96" y="0" type="line"/>
    </contour>
    <contour>
      <point x="394" y="124" type="line"/>
      <point x="516" y="124" type="line"/>
      <point x="490" y="0" type="line"/>
      <point x="369" y="0" type="line"/>
    </contour>
    <contour>
      <point x="665" y="124" type="line"/>
      <point x="787" y="124" type="line"/>
      <point x="760" y="0" type="line"/>
      <point x="640" y="0" type="line"/>
    </contour>
  </outline>
</glyph>
<glyph name="guilsinglleft" format="1">
  <advance width="522"/>
  <unicode hex="2039"/>
  <outline>
    <contour>
      <point x="59" y="691" type="line"/>
      <point x="425" y="1085" type="line"/>
      <point x="475" y="1085" type="line"/>
      <point x="171" y="691" type="line"/>
      <point x="307" y="293" type="line"/>
      <point x="257" y="293" type="line"/>
    </contour>
  </outline>
</glyph>
<glyph name="fraction" format="1">
  <advance width="537"/>
  <unicode hex="2044"/>
  <outline>
    <contour>
      <point x="-113" y="-23" type="line"/>
      <point x="556" y="1306" type="line"/>
      <point x="630" y="1306" type="line"/>
      <point x="-35" y="-23" type="line"/>
    </contour>
  </outline>
</glyph>
<glyph name="uniFB01" format="1">
  <advance width="1059"/>
  <unicode hex="FB01"/>
  <outline>
    <contour>
      <point x="683" y="208" type="curve" smooth="yes"/>
      <point x="803" y="766" type="line"/>
      <point x="351" y="766" type="line"/>
      <point x="201" y="62" type="line"/>
      <point x="400" y="62" type="line"/>
      <point x="388" y="0" type="line"/>
      <point x="-55" y="0" type="line"/>
      <point x="-43" y="62" type="line"/>
      <point x="119" y="62" type="line"/>
      <point x="268" y="766" type="line"/>
      <point x="107" y="766" type="line"/>
      <point x="121" y="828" type="line"/>
      <point x="283" y="828" type="line"/>
      <point x="313" y="976" type="line"/>
      <point x="352" y="1159"/>
      <point x="554" y="1266"/>
      <point x="725" y="1266" type="curve" smooth="yes"/>
      <point x="841" y="1266"/>
      <point x="967" y="1216"/>
      <point x="967" y="1107" type="curve" smooth="yes"/>
      <point x="967" y="1041"/>
      <point x="928" y="1014"/>
      <point x="891" y="1014" type="curve" smooth="yes"/>
      <point x="856" y="1014"/>
      <point x="822" y="1038"/>
      <point x="822" y="1079" type="curve" smooth="yes"/>
      <point x="822" y="1109"/>
      <point x="842" y="1133"/>
      <point x="880" y="1143" type="curve"/>
      <point x="839" y="1184"/>
      <point x="782" y="1201"/>
      <point x="719" y="1201" type="curve" smooth="yes"/>
      <point x="580" y="1201"/>
      <point x="420" y="1103"/>
      <point x="396" y="978" type="curve"/>
      <point x="364" y="828" type="line"/>
      <point x="898" y="828" type="line"/>
      <point x="766" y="210" type="line" smooth="yes"/>
      <point x="762" y="190"/>
      <point x="756" y="159"/>
      <point x="756" y="132" type="curve" smooth="yes"/>
      <point x="756" y="90"/>
      <point x="769" y="52"/>
      <point x="821" y="52" type="curve" smooth="yes"/>
      <point x="888" y="52"/>
      <point x="921" y="135"/>
      <point x="946" y="213" type="curve"/>
      <point x="999" y="192" type="line"/>
      <point x="966" y="65"/>
      <point x="909" y="-9"/>
      <point x="811" y="-9" type="curve" smooth="yes"/>
      <point x="715" y="-9"/>
      <point x="675" y="64"/>
      <point x="675" y="146" type="curve" smooth="yes"/>
      <point x="675" y="166"/>
      <point x="678" y="187"/>
    </contour>
  </outline>
</glyph>
<glyph name="a.alt" format="1">
  <advance width="1081"/>
  <outline>
    <contour>
      <point x="203.593" y="317" type="curve" smooth="yes"/>
      <point x="203.593" y="562"/>
      <point x="375.593" y="851"/>
      <point x="626.593" y="851" type="curve" smooth="yes"/>
      <point x="758.593" y="851"/>
      <point x="839.593" y="769"/>
      <point x="870.593" y="676" type="curve"/>
      <point x="902.593" y="828" type="line"/>
      <point x="991.593" y="828" type="line"/>
      <point x="860.593" y="163" type="line"/>
      <point x="856.593" y="150"/>
      <point x="854.593" y="138"/>
      <point x="854.593" y="123" type="curve" smooth="yes"/>
      <point x="854.593" y="88"/>
      <point x="867.593" y="52"/>
      <point x="914.593" y="52" type="curve" smooth="yes"/>
      <point x="968.593" y="52"/>
      <point x="1006.59" y="95"/>
      <point x="1039.59" y="210" type="curve"/>
      <point x="1097.59" y="188" type="line"/>
      <point x="1069.59" y="87"/>
      <point x="1014.59" y="-9"/>
      <point x="906.593" y="-9" type="curve" smooth="yes"/>
      <point x="830.593" y="-9"/>
      <point x="785.593" y="45"/>
      <point x="785.593" y="116" type="curve" smooth="yes"/>
      <point x="785.593" y="133"/>
      <point x="785.593" y="149"/>
      <point x="790.593" y="166" type="curve"/>
      <point x="780.593" y="143"/>
      <point x="703.593" y="-18"/>
      <point x="508.593" y="-18" type="curve" smooth="yes"/>
      <point x="293.593" y="-18"/>
      <point x="203.593" y="138"/>
    </contour>
    <contour>
      <point x="842.593" y="544" type="curve" smooth="yes"/>
      <point x="842.593" y="662"/>
      <point x="774.593" y="789"/>
      <point x="634.593" y="789" type="curve" smooth="yes"/>
      <point x="426.593" y="789"/>
      <point x="285.593" y="535"/>
      <point x="285.593" y="323" type="curve" smooth="yes"/>
      <point x="285.593" y="172"/>
      <point x="353.593" y="43"/>
      <point x="517.593" y="43" type="curve" smooth="yes"/>
      <point x="740.593" y="43"/>
      <point x="842.593" y="355"/>
    </contour>
  </outline>
</glyph>
<glyph name="lc_ascender_stem" format="1">
  <advance width="500"/>
  <outline>
    <contour>
      <point x="544" y="1311" type="line" smooth="yes"/>
      <point x="277" y="0" type="line"/>
      <point x="192" y="0" type="line"/>
      <point x="446" y="1254" type="line"/>
      <point x="278" y="1254" type="line"/>
      <point x="290" y="1311" type="line"/>
    </contour>
  </outline>
</glyph>
<glyph name="lc_curved_stem" format="1">
  <advance width="1051"/>
  <outline>
    <contour>
      <point x="893.802" y="48.9414" type="curve" smooth="yes"/>
      <point x="961.319" y="48.9414"/>
      <point x="982.37" y="107.933"/>
      <point x="1021.46" y="210" type="curve"/>
      <point x="1079.46" y="188" type="line"/>
      <point x="1036.06" y="47.8416"/>
      <point x="987.054" y="-12.2324"/>
      <point x="890.273" y="-12.2324" type="curve" smooth="yes"/>
      <point x="752.014" y="-12.2324"/>
      <point x="721.402" y="87.4017"/>
      <point x="749.459" y="201" type="curve" smooth="yes"/>
      <point x="834.459" y="550" type="line" smooth="yes"/>
      <point x="862.28" y="669.489"/>
      <point x="844.376" y="787"/>
      <point x="702.459" y="787" type="curve" smooth="yes"/>
      <point x="585.074" y="787"/>
      <point x="402" y="678"/>
      <point x="352.459" y="368" type="curve"/>
      <point x="360.459" y="594" type="line"/>
      <point x="453.327" y="766.81"/>
      <point x="566.21" y="851"/>
      <point x="710.459" y="851" type="curve" smooth="yes"/>
      <point x="899.615" y="851"/>
      <point x="955.377" y="709"/>
      <point x="916.459" y="545" type="curve" smooth="yes"/>
      <point x="835.459" y="202" type="line" smooth="yes"/>
      <point x="819.999" y="133.66"/>
      <point x="800.677" y="48.9414"/>
    </contour>
  </outline>
</glyph>
<glyph name="lc_main_stem" format="1">
  <advance width="1051"/>
  <outline>
    <contour>
      <point x="398" y="602" type="line"/>
      <point x="280" y="0" type="line"/>
      <point x="195" y="0" type="line"/>
      <point x="346" y="770" type="line"/>
      <point x="183" y="770" type="line"/>
      <point x="195" y="828" type="line"/>
      <point x="439" y="828" type="line"/>
      <point x="368" y="602" type="line"/>
    </contour>
  </outline>
</glyph>
<glyph name="uc_main_stem" format="1">
  <advance width="595.495048245"/>
  <outline>
    <contour>
      <point x="239.495048245" y="1248" type="line"/>
      <point x="249.495048245" y="1311" type="line"/>
      <point x="720.495048245" y="1311" type="line"/>
      <point x="709.495048245" y="1248" type="line"/>
      <point x="519.495048245" y="1248" type="line"/>
      <point x="271.495048245" y="62" type="line"/>
      <point x="480.495048245" y="62" type="line"/>
      <point x="469.495048245" y="0" type="line"/>
      <point x="-0.504951754972" y="0" type="line"/>
      <point x="10.495048245" y="62" type="line"/>
      <point x="188.495048245" y="62" type="line"/>
      <point x="433.495048245" y="1248" type="line"/>
    </contour>
  </outline>
</glyph>
